<svg width="554" height="466" viewBox="0 0 554 466" fill="none" xmlns="http://www.w3.org/2000/svg">
<path d="M283.635 128.518L293.357 107.129L275.857 81.4622C187.968 91.1844 119.523 165.462 119.523 255.684C119.523 261.518 119.912 266.962 120.301 272.796L148.301 253.74L166.968 263.073C166.968 260.74 166.579 258.407 166.579 255.684C166.968 188.795 218.301 133.962 283.635 128.518Z" fill="#0CF7E8"/>
<path d="M469.134 243.629L441.912 263.462L422.079 254.518C422.079 254.906 422.079 255.295 422.079 255.684C422.079 322.573 369.968 377.795 304.246 382.851L294.912 400.74L313.19 429.906C401.079 420.184 469.523 345.906 469.523 255.684C469.523 251.406 469.523 247.518 469.134 243.629Z" fill="#E6E100"/>
<path d="M422.079 249.073L441.523 257.629L468.746 237.796C459.801 149.518 385.134 80.6846 294.523 80.6846C290.246 80.6846 285.579 81.0735 281.301 81.0735L298.801 106.74L289.079 128.129C291.023 128.129 292.579 128.129 294.523 128.129C362.579 128.129 418.579 181.796 422.079 249.073Z" fill="#61FA16"/>
<path d="M167.357 268.517L148.69 259.184L120.69 277.851C131.968 364.184 205.468 430.684 294.524 430.684C298.801 430.684 303.468 430.295 307.746 430.295L289.468 401.129L298.801 383.629C297.246 383.629 296.079 383.629 294.524 383.629C228.413 383.24 173.968 333.073 167.357 268.517Z" fill="#0C7DED"/>
<path d="M4.70215 54.5078H1.69629V59.6846H0V46.8877H4.23633C5.67773 46.8877 6.78516 47.2158 7.55859 47.8721C8.33789 48.5283 8.72754 49.4834 8.72754 50.7373C8.72754 51.5342 8.51074 52.2285 8.07715 52.8203C7.64941 53.4121 7.05176 53.8545 6.28418 54.1475L9.29004 59.5791V59.6846H7.47949L4.70215 54.5078ZM1.69629 53.1279H4.28906C5.12695 53.1279 5.79199 52.9111 6.28418 52.4775C6.78223 52.0439 7.03125 51.4639 7.03125 50.7373C7.03125 49.9463 6.79395 49.3398 6.31934 48.918C5.85059 48.4961 5.1709 48.2822 4.28027 48.2764H1.69629V53.1279Z" fill="black"/>
<path d="M14.792 59.8604C13.5029 59.8604 12.4541 59.4385 11.6455 58.5947C10.8369 57.7451 10.4326 56.6113 10.4326 55.1934V54.8945C10.4326 53.9512 10.6113 53.1104 10.9688 52.3721C11.332 51.6279 11.8359 51.0479 12.4805 50.6318C13.1309 50.21 13.834 49.999 14.5898 49.999C15.8262 49.999 16.7871 50.4062 17.4727 51.2207C18.1582 52.0352 18.501 53.2012 18.501 54.7188V55.3955H12.0586C12.082 56.333 12.3545 57.0918 12.876 57.6719C13.4033 58.2461 14.0713 58.5332 14.8799 58.5332C15.4541 58.5332 15.9404 58.416 16.3389 58.1816C16.7373 57.9473 17.0859 57.6367 17.3848 57.25L18.3779 58.0234C17.5811 59.248 16.3857 59.8604 14.792 59.8604ZM14.5898 51.335C13.9336 51.335 13.3828 51.5752 12.9375 52.0557C12.4922 52.5303 12.2168 53.1982 12.1113 54.0596H16.875V53.9365C16.8281 53.1104 16.6055 52.4717 16.207 52.0205C15.8086 51.5635 15.2695 51.335 14.5898 51.335Z" fill="black"/>
<path d="M25.9277 57.1621C25.9277 56.7227 25.7607 56.3828 25.4268 56.1426C25.0986 55.8965 24.5215 55.6855 23.6953 55.5098C22.875 55.334 22.2217 55.123 21.7354 54.877C21.2549 54.6309 20.8975 54.3379 20.6631 53.998C20.4346 53.6582 20.3203 53.2539 20.3203 52.7852C20.3203 52.0059 20.6484 51.3467 21.3047 50.8076C21.9668 50.2686 22.8105 49.999 23.8359 49.999C24.9141 49.999 25.7871 50.2773 26.4551 50.834C27.1289 51.3906 27.4658 52.1025 27.4658 52.9697H25.8311C25.8311 52.5244 25.6406 52.1406 25.2598 51.8184C24.8848 51.4961 24.4102 51.335 23.8359 51.335C23.2441 51.335 22.7812 51.4639 22.4473 51.7217C22.1133 51.9795 21.9463 52.3164 21.9463 52.7324C21.9463 53.125 22.1016 53.4209 22.4121 53.6201C22.7227 53.8193 23.2822 54.0098 24.0908 54.1914C24.9053 54.373 25.5645 54.5898 26.0684 54.8418C26.5723 55.0938 26.9443 55.3984 27.1846 55.7559C27.4307 56.1074 27.5537 56.5381 27.5537 57.0479C27.5537 57.8975 27.2139 58.5801 26.5342 59.0957C25.8545 59.6055 24.9727 59.8604 23.8887 59.8604C23.127 59.8604 22.4531 59.7256 21.8672 59.4561C21.2812 59.1865 20.8213 58.8115 20.4873 58.3311C20.1592 57.8447 19.9951 57.3203 19.9951 56.7578H21.6211C21.6504 57.3027 21.8672 57.7363 22.2715 58.0586C22.6816 58.375 23.2207 58.5332 23.8887 58.5332C24.5039 58.5332 24.9961 58.4102 25.3652 58.1641C25.7402 57.9121 25.9277 57.5781 25.9277 57.1621Z" fill="black"/>
<path d="M33.6182 59.8604C32.3291 59.8604 31.2803 59.4385 30.4717 58.5947C29.6631 57.7451 29.2588 56.6113 29.2588 55.1934V54.8945C29.2588 53.9512 29.4375 53.1104 29.7949 52.3721C30.1582 51.6279 30.6621 51.0479 31.3066 50.6318C31.957 50.21 32.6602 49.999 33.416 49.999C34.6523 49.999 35.6133 50.4062 36.2988 51.2207C36.9844 52.0352 37.3271 53.2012 37.3271 54.7188V55.3955H30.8848C30.9082 56.333 31.1807 57.0918 31.7021 57.6719C32.2295 58.2461 32.8975 58.5332 33.7061 58.5332C34.2803 58.5332 34.7666 58.416 35.165 58.1816C35.5635 57.9473 35.9121 57.6367 36.2109 57.25L37.2041 58.0234C36.4072 59.248 35.2119 59.8604 33.6182 59.8604ZM33.416 51.335C32.7598 51.335 32.209 51.5752 31.7637 52.0557C31.3184 52.5303 31.043 53.1982 30.9375 54.0596H35.7012V53.9365C35.6543 53.1104 35.4316 52.4717 35.0332 52.0205C34.6348 51.5635 34.0957 51.335 33.416 51.335Z" fill="black"/>
<path d="M45.0879 59.6846C44.9941 59.4971 44.918 59.1631 44.8594 58.6826C44.1035 59.4678 43.2012 59.8604 42.1523 59.8604C41.2148 59.8604 40.4443 59.5967 39.8408 59.0693C39.2432 58.5361 38.9443 57.8623 38.9443 57.0479C38.9443 56.0576 39.3193 55.29 40.0693 54.7451C40.8252 54.1943 41.8857 53.9189 43.251 53.9189H44.833V53.1719C44.833 52.6035 44.6631 52.1523 44.3232 51.8184C43.9834 51.4785 43.4824 51.3086 42.8203 51.3086C42.2402 51.3086 41.7539 51.4551 41.3613 51.748C40.9688 52.041 40.7725 52.3955 40.7725 52.8115H39.1377C39.1377 52.3369 39.3047 51.8799 39.6387 51.4404C39.9785 50.9951 40.4355 50.6436 41.0098 50.3857C41.5898 50.1279 42.2256 49.999 42.917 49.999C44.0127 49.999 44.8711 50.2744 45.4922 50.8252C46.1133 51.3701 46.4355 52.123 46.459 53.084V57.4609C46.459 58.334 46.5703 59.0283 46.793 59.5439V59.6846H45.0879ZM42.3896 58.4453C42.8994 58.4453 43.3828 58.3135 43.8398 58.0498C44.2969 57.7861 44.6279 57.4434 44.833 57.0215V55.0703H43.5586C41.5664 55.0703 40.5703 55.6533 40.5703 56.8193C40.5703 57.3291 40.7402 57.7275 41.0801 58.0146C41.4199 58.3018 41.8564 58.4453 42.3896 58.4453Z" fill="black"/>
<path d="M53.6045 51.6338C53.3584 51.5928 53.0918 51.5723 52.8047 51.5723C51.7383 51.5723 51.0146 52.0264 50.6338 52.9346V59.6846H49.0078V50.1748H50.5898L50.6162 51.2734C51.1494 50.4238 51.9053 49.999 52.8838 49.999C53.2002 49.999 53.4404 50.04 53.6045 50.1221V51.6338Z" fill="black"/>
<path d="M58.7461 58.5332C59.3262 58.5332 59.833 58.3574 60.2666 58.0059C60.7002 57.6543 60.9404 57.2148 60.9873 56.6875H62.5254C62.4961 57.2324 62.3086 57.751 61.9629 58.2432C61.6172 58.7354 61.1543 59.1279 60.5742 59.4209C60 59.7139 59.3906 59.8604 58.7461 59.8604C57.4512 59.8604 56.4199 59.4297 55.6523 58.5684C54.8906 57.7012 54.5098 56.5176 54.5098 55.0176V54.7451C54.5098 53.8193 54.6797 52.9961 55.0195 52.2754C55.3594 51.5547 55.8457 50.9951 56.4785 50.5967C57.1172 50.1982 57.8701 49.999 58.7373 49.999C59.8037 49.999 60.6885 50.3184 61.3916 50.957C62.1006 51.5957 62.4785 52.4248 62.5254 53.4443H60.9873C60.9404 52.8291 60.7061 52.3252 60.2842 51.9326C59.8682 51.5342 59.3525 51.335 58.7373 51.335C57.9111 51.335 57.2695 51.6338 56.8125 52.2314C56.3613 52.8232 56.1357 53.6816 56.1357 54.8066V55.1143C56.1357 56.21 56.3613 57.0537 56.8125 57.6455C57.2637 58.2373 57.9082 58.5332 58.7461 58.5332Z" fill="black"/>
<path d="M65.9795 51.3262C66.7002 50.4414 67.6377 49.999 68.792 49.999C70.8018 49.999 71.8154 51.1328 71.833 53.4004V59.6846H70.207V53.3916C70.2012 52.7061 70.043 52.1992 69.7324 51.8711C69.4277 51.543 68.9502 51.3789 68.2998 51.3789C67.7725 51.3789 67.3096 51.5195 66.9111 51.8008C66.5127 52.082 66.2021 52.4512 65.9795 52.9082V59.6846H64.3535V46.1846H65.9795V51.3262Z" fill="black"/>
<path d="M78.3896 56.248C78.3896 55.6328 78.5596 55.0674 78.8994 54.5518C79.2451 54.0361 79.9014 53.4355 80.8682 52.75C80.2998 52.0586 79.9189 51.502 79.7256 51.0801C79.5322 50.6582 79.4355 50.2393 79.4355 49.8232C79.4355 48.8506 79.7227 48.0889 80.2969 47.5381C80.8711 46.9873 81.6504 46.7119 82.6348 46.7119C83.5137 46.7119 84.2402 46.9697 84.8145 47.4854C85.3887 47.9951 85.6758 48.6396 85.6758 49.4189C85.6758 49.9346 85.5439 50.4121 85.2803 50.8516C85.0225 51.2852 84.5684 51.7422 83.918 52.2227L82.9775 52.917L85.8252 56.3184C86.2236 55.5566 86.4229 54.71 86.4229 53.7783H87.8906C87.8906 55.2725 87.5303 56.5117 86.8096 57.4961L88.6377 59.6846H86.6865L85.834 58.6738C85.4004 59.0605 84.8906 59.3564 84.3047 59.5615C83.7246 59.7607 83.1328 59.8604 82.5293 59.8604C81.2812 59.8604 80.2793 59.5293 79.5234 58.8672C78.7676 58.2051 78.3896 57.332 78.3896 56.248ZM82.5293 58.5332C83.3906 58.5332 84.1787 58.2051 84.8936 57.5488L81.7734 53.8135L81.4834 54.0244C80.5049 54.7451 80.0156 55.4863 80.0156 56.248C80.0156 56.9395 80.2383 57.4932 80.6836 57.9092C81.1348 58.3252 81.75 58.5332 82.5293 58.5332ZM81.0615 49.7705C81.0615 50.333 81.4072 51.0361 82.0986 51.8799L83.1357 51.1504C83.5342 50.8691 83.8066 50.6025 83.9531 50.3506C84.0996 50.0928 84.1729 49.7822 84.1729 49.4189C84.1729 49.0264 84.0264 48.7012 83.7334 48.4434C83.4404 48.1797 83.0713 48.0479 82.626 48.0479C82.1455 48.0479 81.7646 48.2119 81.4834 48.54C81.2021 48.8623 81.0615 49.2725 81.0615 49.7705Z" fill="black"/>
<path d="M94.6494 59.6846V46.8877H98.833C100.222 46.8877 101.265 47.1748 101.962 47.749C102.665 48.3232 103.017 49.1729 103.017 50.2979C103.017 50.8955 102.847 51.4258 102.507 51.8887C102.167 52.3457 101.704 52.7002 101.118 52.9521C101.81 53.1455 102.354 53.5146 102.753 54.0596C103.157 54.5986 103.359 55.2432 103.359 55.9932C103.359 57.1416 102.987 58.0439 102.243 58.7002C101.499 59.3564 100.447 59.6846 99.0879 59.6846H94.6494ZM96.3369 53.6992V58.3047H99.123C99.9082 58.3047 100.526 58.1025 100.978 57.6982C101.435 57.2881 101.663 56.7256 101.663 56.0107C101.663 54.4697 100.825 53.6992 99.1494 53.6992H96.3369ZM96.3369 52.3457H98.8857C99.624 52.3457 100.213 52.1611 100.652 51.792C101.098 51.4229 101.32 50.9219 101.32 50.2891C101.32 49.5859 101.115 49.0762 100.705 48.7598C100.295 48.4375 99.6709 48.2764 98.833 48.2764H96.3369V52.3457Z" fill="black"/>
<path d="M110.206 51.6338C109.96 51.5928 109.693 51.5723 109.406 51.5723C108.34 51.5723 107.616 52.0264 107.235 52.9346V59.6846H105.609V50.1748H107.191L107.218 51.2734C107.751 50.4238 108.507 49.999 109.485 49.999C109.802 49.999 110.042 50.04 110.206 50.1221V51.6338Z" fill="black"/>
<path d="M113.476 59.6846H111.85V50.1748H113.476V59.6846ZM111.718 47.6523C111.718 47.3887 111.797 47.166 111.955 46.9844C112.119 46.8027 112.359 46.7119 112.676 46.7119C112.992 46.7119 113.232 46.8027 113.396 46.9844C113.561 47.166 113.643 47.3887 113.643 47.6523C113.643 47.916 113.561 48.1357 113.396 48.3115C113.232 48.4873 112.992 48.5752 112.676 48.5752C112.359 48.5752 112.119 48.4873 111.955 48.3115C111.797 48.1357 111.718 47.916 111.718 47.6523Z" fill="black"/>
<path d="M120.032 59.8604C118.743 59.8604 117.694 59.4385 116.886 58.5947C116.077 57.7451 115.673 56.6113 115.673 55.1934V54.8945C115.673 53.9512 115.852 53.1104 116.209 52.3721C116.572 51.6279 117.076 51.0479 117.721 50.6318C118.371 50.21 119.074 49.999 119.83 49.999C121.066 49.999 122.027 50.4062 122.713 51.2207C123.398 52.0352 123.741 53.2012 123.741 54.7188V55.3955H117.299C117.322 56.333 117.595 57.0918 118.116 57.6719C118.644 58.2461 119.312 58.5332 120.12 58.5332C120.694 58.5332 121.181 58.416 121.579 58.1816C121.978 57.9473 122.326 57.6367 122.625 57.25L123.618 58.0234C122.821 59.248 121.626 59.8604 120.032 59.8604ZM119.83 51.335C119.174 51.335 118.623 51.5752 118.178 52.0557C117.732 52.5303 117.457 53.1982 117.352 54.0596H122.115V53.9365C122.068 53.1104 121.846 52.4717 121.447 52.0205C121.049 51.5635 120.51 51.335 119.83 51.335Z" fill="black"/>
<path d="M126.176 59.6846V51.4316H124.673V50.1748H126.176V49.3662C126.176 48.3057 126.478 47.4795 127.081 46.8877C127.69 46.2959 128.549 46 129.656 46C130.312 46 131.142 46.1787 132.144 46.5361L131.871 47.9072C131.139 47.6143 130.441 47.4678 129.779 47.4678C129.082 47.4678 128.578 47.626 128.268 47.9424C127.963 48.2529 127.811 48.7217 127.811 49.3486V50.1748H129.753V51.4316H127.811V59.6846H126.176ZM132.952 59.6846H131.317V50.1748H132.952V59.6846Z" fill="black"/>
<path d="M137.136 50.1748L137.188 51.3701C137.915 50.4561 138.864 49.999 140.036 49.999C142.046 49.999 143.06 51.1328 143.077 53.4004V59.6846H141.451V53.3916C141.445 52.7061 141.287 52.1992 140.977 51.8711C140.672 51.543 140.194 51.3789 139.544 51.3789C139.017 51.3789 138.554 51.5195 138.155 51.8008C137.757 52.082 137.446 52.4512 137.224 52.9082V59.6846H135.598V50.1748H137.136Z" fill="black"/>
<path d="M145.143 54.8506C145.143 53.3682 145.485 52.1904 146.171 51.3174C146.856 50.4385 147.765 49.999 148.896 49.999C150.056 49.999 150.961 50.4092 151.611 51.2295L151.69 50.1748H153.176V59.4561C153.176 60.6865 152.81 61.6562 152.077 62.3652C151.351 63.0742 150.372 63.4287 149.142 63.4287C148.456 63.4287 147.785 63.2822 147.129 62.9893C146.473 62.6963 145.972 62.2949 145.626 61.7852L146.47 60.8096C147.167 61.6709 148.02 62.1016 149.027 62.1016C149.818 62.1016 150.434 61.8789 150.873 61.4336C151.318 60.9883 151.541 60.3613 151.541 59.5527V58.7354C150.891 59.4854 150.003 59.8604 148.878 59.8604C147.765 59.8604 146.862 59.4121 146.171 58.5156C145.485 57.6191 145.143 56.3975 145.143 54.8506ZM146.777 55.0352C146.777 56.1074 146.997 56.9512 147.437 57.5664C147.876 58.1758 148.491 58.4805 149.282 58.4805C150.308 58.4805 151.061 58.0146 151.541 57.083V52.7412C151.043 51.833 150.296 51.3789 149.3 51.3789C148.509 51.3789 147.891 51.6865 147.445 52.3018C147 52.917 146.777 53.8281 146.777 55.0352Z" fill="black"/>
<path fill-rule="evenodd" clip-rule="evenodd" d="M154.093 72.1846H39.5234V71.1846H154.519L185.884 103.838L185.163 104.531L154.093 72.1846Z" fill="black"/>
<path d="M15.4219 429.624C15.2637 430.978 14.7627 432.023 13.9189 432.762C13.0811 433.494 11.9648 433.86 10.5703 433.86C9.05859 433.86 7.8457 433.318 6.93164 432.234C6.02344 431.15 5.56934 429.7 5.56934 427.884V426.653C5.56934 425.464 5.78027 424.418 6.20215 423.516C6.62988 422.613 7.2334 421.922 8.0127 421.441C8.79199 420.955 9.69434 420.712 10.7197 420.712C12.0791 420.712 13.1689 421.093 13.9893 421.854C14.8096 422.61 15.2871 423.659 15.4219 425.001H13.7256C13.5791 423.981 13.2598 423.243 12.7676 422.786C12.2812 422.329 11.5986 422.101 10.7197 422.101C9.6416 422.101 8.79492 422.499 8.17969 423.296C7.57031 424.093 7.26562 425.227 7.26562 426.697V427.937C7.26562 429.325 7.55566 430.43 8.13574 431.25C8.71582 432.07 9.52734 432.48 10.5703 432.48C11.5078 432.48 12.2256 432.27 12.7236 431.848C13.2275 431.42 13.5615 430.679 13.7256 429.624H15.4219Z" fill="black"/>
<path d="M17.0479 428.842C17.0479 427.91 17.2295 427.072 17.5928 426.328C17.9619 425.584 18.4717 425.01 19.1221 424.605C19.7783 424.201 20.5254 423.999 21.3633 423.999C22.6582 423.999 23.7041 424.447 24.501 425.344C25.3037 426.24 25.7051 427.433 25.7051 428.921V429.035C25.7051 429.961 25.5264 430.793 25.1689 431.531C24.8174 432.264 24.3105 432.835 23.6484 433.245C22.9922 433.655 22.2363 433.86 21.3809 433.86C20.0918 433.86 19.0459 433.412 18.2432 432.516C17.4463 431.619 17.0479 430.433 17.0479 428.956V428.842ZM18.6826 429.035C18.6826 430.09 18.9258 430.937 19.4121 431.575C19.9043 432.214 20.5605 432.533 21.3809 432.533C22.207 432.533 22.8633 432.211 23.3496 431.566C23.8359 430.916 24.0791 430.008 24.0791 428.842C24.0791 427.799 23.8301 426.955 23.332 426.311C22.8398 425.66 22.1836 425.335 21.3633 425.335C20.5605 425.335 19.9131 425.654 19.4209 426.293C18.9287 426.932 18.6826 427.846 18.6826 429.035Z" fill="black"/>
<path d="M27.3486 428.851C27.3486 427.392 27.6943 426.22 28.3857 425.335C29.0771 424.444 29.9824 423.999 31.1016 423.999C32.2148 423.999 33.0967 424.38 33.7471 425.142V420.185H35.373V433.685H33.8789L33.7998 432.665C33.1494 433.462 32.2441 433.86 31.084 433.86C29.9824 433.86 29.083 433.409 28.3857 432.507C27.6943 431.604 27.3486 430.427 27.3486 428.974V428.851ZM28.9746 429.035C28.9746 430.113 29.1973 430.957 29.6426 431.566C30.0879 432.176 30.7031 432.48 31.4883 432.48C32.5195 432.48 33.2725 432.018 33.7471 431.092V426.724C33.2607 425.827 32.5137 425.379 31.5059 425.379C30.709 425.379 30.0879 425.687 29.6426 426.302C29.1973 426.917 28.9746 427.828 28.9746 429.035Z" fill="black"/>
<path d="M41.8506 433.86C40.5615 433.86 39.5127 433.438 38.7041 432.595C37.8955 431.745 37.4912 430.611 37.4912 429.193V428.895C37.4912 427.951 37.6699 427.11 38.0273 426.372C38.3906 425.628 38.8945 425.048 39.5391 424.632C40.1895 424.21 40.8926 423.999 41.6484 423.999C42.8848 423.999 43.8457 424.406 44.5312 425.221C45.2168 426.035 45.5596 427.201 45.5596 428.719V429.396H39.1172C39.1406 430.333 39.4131 431.092 39.9346 431.672C40.4619 432.246 41.1299 432.533 41.9385 432.533C42.5127 432.533 42.999 432.416 43.3975 432.182C43.7959 431.947 44.1445 431.637 44.4434 431.25L45.4365 432.023C44.6396 433.248 43.4443 433.86 41.8506 433.86ZM41.6484 425.335C40.9922 425.335 40.4414 425.575 39.9961 426.056C39.5508 426.53 39.2754 427.198 39.1699 428.06H43.9336V427.937C43.8867 427.11 43.6641 426.472 43.2656 426.021C42.8672 425.563 42.3281 425.335 41.6484 425.335Z" fill="black"/>
<path d="M51.5713 430.248C51.5713 429.633 51.7412 429.067 52.0811 428.552C52.4268 428.036 53.083 427.436 54.0498 426.75C53.4814 426.059 53.1006 425.502 52.9072 425.08C52.7139 424.658 52.6172 424.239 52.6172 423.823C52.6172 422.851 52.9043 422.089 53.4785 421.538C54.0527 420.987 54.832 420.712 55.8164 420.712C56.6953 420.712 57.4219 420.97 57.9961 421.485C58.5703 421.995 58.8574 422.64 58.8574 423.419C58.8574 423.935 58.7256 424.412 58.4619 424.852C58.2041 425.285 57.75 425.742 57.0996 426.223L56.1592 426.917L59.0068 430.318C59.4053 429.557 59.6045 428.71 59.6045 427.778H61.0723C61.0723 429.272 60.7119 430.512 59.9912 431.496L61.8193 433.685H59.8682L59.0156 432.674C58.582 433.061 58.0723 433.356 57.4863 433.562C56.9062 433.761 56.3145 433.86 55.7109 433.86C54.4629 433.86 53.4609 433.529 52.7051 432.867C51.9492 432.205 51.5713 431.332 51.5713 430.248ZM55.7109 432.533C56.5723 432.533 57.3604 432.205 58.0752 431.549L54.9551 427.813L54.665 428.024C53.6865 428.745 53.1973 429.486 53.1973 430.248C53.1973 430.939 53.4199 431.493 53.8652 431.909C54.3164 432.325 54.9316 432.533 55.7109 432.533ZM54.2432 423.771C54.2432 424.333 54.5889 425.036 55.2803 425.88L56.3174 425.15C56.7158 424.869 56.9883 424.603 57.1348 424.351C57.2812 424.093 57.3545 423.782 57.3545 423.419C57.3545 423.026 57.208 422.701 56.915 422.443C56.6221 422.18 56.2529 422.048 55.8076 422.048C55.3271 422.048 54.9463 422.212 54.665 422.54C54.3838 422.862 54.2432 423.272 54.2432 423.771Z" fill="black"/>
<path d="M67.8311 433.685V420.888H71.4434C72.5566 420.888 73.541 421.134 74.3965 421.626C75.252 422.118 75.9111 422.818 76.374 423.727C76.8428 424.635 77.0801 425.678 77.0859 426.855V427.673C77.0859 428.88 76.8516 429.938 76.3828 430.846C75.9199 431.754 75.2549 432.451 74.3877 432.938C73.5264 433.424 72.5215 433.673 71.373 433.685H67.8311ZM69.5186 422.276V432.305H71.2939C72.5947 432.305 73.6055 431.9 74.3262 431.092C75.0527 430.283 75.416 429.132 75.416 427.638V426.891C75.416 425.438 75.0732 424.31 74.3877 423.507C73.708 422.698 72.7412 422.288 71.4873 422.276H69.5186Z" fill="black"/>
<path d="M83.335 433.86C82.0459 433.86 80.9971 433.438 80.1885 432.595C79.3799 431.745 78.9756 430.611 78.9756 429.193V428.895C78.9756 427.951 79.1543 427.11 79.5117 426.372C79.875 425.628 80.3789 425.048 81.0234 424.632C81.6738 424.21 82.377 423.999 83.1328 423.999C84.3691 423.999 85.3301 424.406 86.0156 425.221C86.7012 426.035 87.0439 427.201 87.0439 428.719V429.396H80.6016C80.625 430.333 80.8975 431.092 81.4189 431.672C81.9463 432.246 82.6143 432.533 83.4229 432.533C83.9971 432.533 84.4834 432.416 84.8818 432.182C85.2803 431.947 85.6289 431.637 85.9277 431.25L86.9209 432.023C86.124 433.248 84.9287 433.86 83.335 433.86ZM83.1328 425.335C82.4766 425.335 81.9258 425.575 81.4805 426.056C81.0352 426.53 80.7598 427.198 80.6543 428.06H85.418V427.937C85.3711 427.11 85.1484 426.472 84.75 426.021C84.3516 425.563 83.8125 425.335 83.1328 425.335Z" fill="black"/>
<path d="M96.9668 429.035C96.9668 430.482 96.6357 431.648 95.9736 432.533C95.3115 433.418 94.415 433.86 93.2842 433.86C92.1299 433.86 91.2217 433.494 90.5596 432.762V437.341H88.9336V424.175H90.4189L90.498 425.229C91.1602 424.409 92.0801 423.999 93.2578 423.999C94.4004 423.999 95.3027 424.43 95.9648 425.291C96.6328 426.152 96.9668 427.351 96.9668 428.886V429.035ZM95.3408 428.851C95.3408 427.778 95.1123 426.932 94.6553 426.311C94.1982 425.689 93.5713 425.379 92.7744 425.379C91.79 425.379 91.0518 425.815 90.5596 426.688V431.232C91.0459 432.1 91.79 432.533 92.792 432.533C93.5713 432.533 94.1895 432.226 94.6465 431.61C95.1094 430.989 95.3408 430.069 95.3408 428.851Z" fill="black"/>
<path d="M100.808 433.685H99.1816V420.185H100.808V433.685Z" fill="black"/>
<path d="M102.987 428.842C102.987 427.91 103.169 427.072 103.532 426.328C103.901 425.584 104.411 425.01 105.062 424.605C105.718 424.201 106.465 423.999 107.303 423.999C108.598 423.999 109.644 424.447 110.44 425.344C111.243 426.24 111.645 427.433 111.645 428.921V429.035C111.645 429.961 111.466 430.793 111.108 431.531C110.757 432.264 110.25 432.835 109.588 433.245C108.932 433.655 108.176 433.86 107.32 433.86C106.031 433.86 104.985 433.412 104.183 432.516C103.386 431.619 102.987 430.433 102.987 428.956V428.842ZM104.622 429.035C104.622 430.09 104.865 430.937 105.352 431.575C105.844 432.214 106.5 432.533 107.32 432.533C108.146 432.533 108.803 432.211 109.289 431.566C109.775 430.916 110.019 430.008 110.019 428.842C110.019 427.799 109.77 426.955 109.271 426.311C108.779 425.66 108.123 425.335 107.303 425.335C106.5 425.335 105.853 425.654 105.36 426.293C104.868 426.932 104.622 427.846 104.622 429.035Z" fill="black"/>
<path d="M116.654 431.303L118.869 424.175H120.609L116.786 435.152C116.194 436.734 115.254 437.525 113.965 437.525L113.657 437.499L113.051 437.385V436.066L113.49 436.102C114.041 436.102 114.469 435.99 114.773 435.768C115.084 435.545 115.339 435.138 115.538 434.546L115.898 433.579L112.506 424.175H114.281L116.654 431.303Z" fill="black"/>
<path fill-rule="evenodd" clip-rule="evenodd" d="M173.377 390.038L119.231 444.185H29.5234V443.185H118.816L172.67 389.331L173.377 390.038Z" fill="black"/>
<path d="M317.844 13.6846H316.156V0.887695H317.844V13.6846Z" fill="black"/>
<path d="M322.221 4.1748L322.273 5.37012C323 4.45605 323.949 3.99902 325.121 3.99902C327.131 3.99902 328.145 5.13281 328.162 7.40039V13.6846H326.536V7.3916C326.53 6.70605 326.372 6.19922 326.062 5.87109C325.757 5.54297 325.279 5.37891 324.629 5.37891C324.102 5.37891 323.639 5.51953 323.24 5.80078C322.842 6.08203 322.531 6.45117 322.309 6.9082V13.6846H320.683V4.1748H322.221Z" fill="black"/>
<path d="M331.414 13.6846V5.43164H329.911V4.1748H331.414V3.19922C331.414 2.17969 331.687 1.3916 332.232 0.834961C332.776 0.27832 333.547 0 334.543 0C334.918 0 335.29 0.0498047 335.659 0.149414L335.571 1.46777C335.296 1.41504 335.003 1.38867 334.692 1.38867C334.165 1.38867 333.758 1.54395 333.471 1.85449C333.184 2.15918 333.04 2.59863 333.04 3.17285V4.1748H335.07V5.43164H333.04V13.6846H331.414Z" fill="black"/>
<path d="M336.441 8.8418C336.441 7.91016 336.623 7.07227 336.986 6.32812C337.356 5.58398 337.865 5.00977 338.516 4.60547C339.172 4.20117 339.919 3.99902 340.757 3.99902C342.052 3.99902 343.098 4.44727 343.895 5.34375C344.697 6.24023 345.099 7.43262 345.099 8.9209V9.03516C345.099 9.96094 344.92 10.793 344.563 11.5312C344.211 12.2637 343.704 12.835 343.042 13.2451C342.386 13.6553 341.63 13.8604 340.774 13.8604C339.485 13.8604 338.44 13.4121 337.637 12.5156C336.84 11.6191 336.441 10.4326 336.441 8.95605V8.8418ZM338.076 9.03516C338.076 10.0898 338.319 10.9365 338.806 11.5752C339.298 12.2139 339.954 12.5332 340.774 12.5332C341.601 12.5332 342.257 12.2109 342.743 11.5664C343.23 10.916 343.473 10.0078 343.473 8.8418C343.473 7.79883 343.224 6.95508 342.726 6.31055C342.233 5.66016 341.577 5.33496 340.757 5.33496C339.954 5.33496 339.307 5.6543 338.815 6.29297C338.322 6.93164 338.076 7.8457 338.076 9.03516Z" fill="black"/>
<path d="M351.734 5.63379C351.488 5.59277 351.222 5.57227 350.935 5.57227C349.868 5.57227 349.145 6.02637 348.764 6.93457V13.6846H347.138V4.1748H348.72L348.746 5.27344C349.279 4.42383 350.035 3.99902 351.014 3.99902C351.33 3.99902 351.57 4.04004 351.734 4.12207V5.63379Z" fill="black"/>
<path d="M354.767 4.1748L354.811 5.22949C355.508 4.40918 356.448 3.99902 357.632 3.99902C358.962 3.99902 359.867 4.50879 360.348 5.52832C360.664 5.07129 361.074 4.70215 361.578 4.4209C362.088 4.13965 362.689 3.99902 363.38 3.99902C365.466 3.99902 366.526 5.10352 366.562 7.3125V13.6846H364.936V7.40918C364.936 6.72949 364.78 6.22266 364.47 5.88867C364.159 5.54883 363.638 5.37891 362.905 5.37891C362.302 5.37891 361.801 5.56055 361.402 5.92383C361.004 6.28125 360.773 6.76465 360.708 7.37402V13.6846H359.073V7.45312C359.073 6.07031 358.397 5.37891 357.043 5.37891C355.977 5.37891 355.247 5.83301 354.855 6.74121V13.6846H353.229V4.1748H354.767Z" fill="black"/>
<path d="M374.894 13.6846C374.8 13.4971 374.724 13.1631 374.665 12.6826C373.909 13.4678 373.007 13.8604 371.958 13.8604C371.021 13.8604 370.25 13.5967 369.647 13.0693C369.049 12.5361 368.75 11.8623 368.75 11.0479C368.75 10.0576 369.125 9.29004 369.875 8.74512C370.631 8.19434 371.691 7.91895 373.057 7.91895H374.639V7.17188C374.639 6.60352 374.469 6.15234 374.129 5.81836C373.789 5.47852 373.288 5.30859 372.626 5.30859C372.046 5.30859 371.56 5.45508 371.167 5.74805C370.774 6.04102 370.578 6.39551 370.578 6.81152H368.943C368.943 6.33691 369.11 5.87988 369.444 5.44043C369.784 4.99512 370.241 4.64355 370.815 4.38574C371.396 4.12793 372.031 3.99902 372.723 3.99902C373.818 3.99902 374.677 4.27441 375.298 4.8252C375.919 5.37012 376.241 6.12305 376.265 7.08398V11.4609C376.265 12.334 376.376 13.0283 376.599 13.5439V13.6846H374.894ZM372.195 12.4453C372.705 12.4453 373.189 12.3135 373.646 12.0498C374.103 11.7861 374.434 11.4434 374.639 11.0215V9.07031H373.364C371.372 9.07031 370.376 9.65332 370.376 10.8193C370.376 11.3291 370.546 11.7275 370.886 12.0146C371.226 12.3018 371.662 12.4453 372.195 12.4453Z" fill="black"/>
<path d="M381.02 1.87207V4.1748H382.795V5.43164H381.02V11.3291C381.02 11.71 381.099 11.9971 381.257 12.1904C381.415 12.3779 381.685 12.4717 382.065 12.4717C382.253 12.4717 382.511 12.4365 382.839 12.3662V13.6846C382.411 13.8018 381.995 13.8604 381.591 13.8604C380.864 13.8604 380.316 13.6406 379.947 13.2012C379.578 12.7617 379.394 12.1377 379.394 11.3291V5.43164H377.662V4.1748H379.394V1.87207H381.02Z" fill="black"/>
<path d="M386.469 13.6846H384.843V4.1748H386.469V13.6846ZM384.711 1.65234C384.711 1.38867 384.79 1.16602 384.948 0.984375C385.112 0.802734 385.353 0.711914 385.669 0.711914C385.985 0.711914 386.226 0.802734 386.39 0.984375C386.554 1.16602 386.636 1.38867 386.636 1.65234C386.636 1.91602 386.554 2.13574 386.39 2.31152C386.226 2.4873 385.985 2.5752 385.669 2.5752C385.353 2.5752 385.112 2.4873 384.948 2.31152C384.79 2.13574 384.711 1.91602 384.711 1.65234Z" fill="black"/>
<path d="M388.648 8.8418C388.648 7.91016 388.83 7.07227 389.193 6.32812C389.563 5.58398 390.072 5.00977 390.723 4.60547C391.379 4.20117 392.126 3.99902 392.964 3.99902C394.259 3.99902 395.305 4.44727 396.102 5.34375C396.904 6.24023 397.306 7.43262 397.306 8.9209V9.03516C397.306 9.96094 397.127 10.793 396.77 11.5312C396.418 12.2637 395.911 12.835 395.249 13.2451C394.593 13.6553 393.837 13.8604 392.982 13.8604C391.692 13.8604 390.647 13.4121 389.844 12.5156C389.047 11.6191 388.648 10.4326 388.648 8.95605V8.8418ZM390.283 9.03516C390.283 10.0898 390.526 10.9365 391.013 11.5752C391.505 12.2139 392.161 12.5332 392.982 12.5332C393.808 12.5332 394.464 12.2109 394.95 11.5664C395.437 10.916 395.68 10.0078 395.68 8.8418C395.68 7.79883 395.431 6.95508 394.933 6.31055C394.44 5.66016 393.784 5.33496 392.964 5.33496C392.161 5.33496 391.514 5.6543 391.022 6.29297C390.529 6.93164 390.283 7.8457 390.283 9.03516Z" fill="black"/>
<path d="M400.883 4.1748L400.936 5.37012C401.662 4.45605 402.611 3.99902 403.783 3.99902C405.793 3.99902 406.807 5.13281 406.824 7.40039V13.6846H405.198V7.3916C405.192 6.70605 405.034 6.19922 404.724 5.87109C404.419 5.54297 403.941 5.37891 403.291 5.37891C402.764 5.37891 402.301 5.51953 401.902 5.80078C401.504 6.08203 401.193 6.45117 400.971 6.9082V13.6846H399.345V4.1748H400.883Z" fill="black"/>
<path d="M421.063 10.3447H415.701L414.497 13.6846H412.757L417.644 0.887695H419.12L424.016 13.6846H422.284L421.063 10.3447ZM416.211 8.95605H420.562L418.382 2.9707L416.211 8.95605Z" fill="black"/>
<path d="M430.08 5.63379C429.834 5.59277 429.567 5.57227 429.28 5.57227C428.214 5.57227 427.49 6.02637 427.109 6.93457V13.6846H425.483V4.1748H427.065L427.092 5.27344C427.625 4.42383 428.381 3.99902 429.359 3.99902C429.676 3.99902 429.916 4.04004 430.08 4.12207V5.63379Z" fill="black"/>
<path d="M435.222 12.5332C435.802 12.5332 436.309 12.3574 436.742 12.0059C437.176 11.6543 437.416 11.2148 437.463 10.6875H439.001C438.972 11.2324 438.784 11.751 438.439 12.2432C438.093 12.7354 437.63 13.1279 437.05 13.4209C436.476 13.7139 435.866 13.8604 435.222 13.8604C433.927 13.8604 432.896 13.4297 432.128 12.5684C431.366 11.7012 430.985 10.5176 430.985 9.01758V8.74512C430.985 7.81934 431.155 6.99609 431.495 6.27539C431.835 5.55469 432.321 4.99512 432.954 4.59668C433.593 4.19824 434.346 3.99902 435.213 3.99902C436.279 3.99902 437.164 4.31836 437.867 4.95703C438.576 5.5957 438.954 6.4248 439.001 7.44434H437.463C437.416 6.8291 437.182 6.3252 436.76 5.93262C436.344 5.53418 435.828 5.33496 435.213 5.33496C434.387 5.33496 433.745 5.63379 433.288 6.23145C432.837 6.82324 432.611 7.68164 432.611 8.80664V9.11426C432.611 10.21 432.837 11.0537 433.288 11.6455C433.739 12.2373 434.384 12.5332 435.222 12.5332Z" fill="black"/>
<path d="M442.455 5.32617C443.176 4.44141 444.113 3.99902 445.268 3.99902C447.277 3.99902 448.291 5.13281 448.309 7.40039V13.6846H446.683V7.3916C446.677 6.70605 446.519 6.19922 446.208 5.87109C445.903 5.54297 445.426 5.37891 444.775 5.37891C444.248 5.37891 443.785 5.51953 443.387 5.80078C442.988 6.08203 442.678 6.45117 442.455 6.9082V13.6846H440.829V0.18457H442.455V5.32617Z" fill="black"/>
<path d="M452.51 13.6846H450.884V4.1748H452.51V13.6846ZM450.752 1.65234C450.752 1.38867 450.831 1.16602 450.989 0.984375C451.153 0.802734 451.394 0.711914 451.71 0.711914C452.026 0.711914 452.267 0.802734 452.431 0.984375C452.595 1.16602 452.677 1.38867 452.677 1.65234C452.677 1.91602 452.595 2.13574 452.431 2.31152C452.267 2.4873 452.026 2.5752 451.71 2.5752C451.394 2.5752 451.153 2.4873 450.989 2.31152C450.831 2.13574 450.752 1.91602 450.752 1.65234Z" fill="black"/>
<path d="M457.326 1.87207V4.1748H459.102V5.43164H457.326V11.3291C457.326 11.71 457.405 11.9971 457.564 12.1904C457.722 12.3779 457.991 12.4717 458.372 12.4717C458.56 12.4717 458.817 12.4365 459.146 12.3662V13.6846C458.718 13.8018 458.302 13.8604 457.898 13.8604C457.171 13.8604 456.623 13.6406 456.254 13.2012C455.885 12.7617 455.7 12.1377 455.7 11.3291V5.43164H453.969V4.1748H455.7V1.87207H457.326Z" fill="black"/>
<path d="M464.955 13.8604C463.666 13.8604 462.617 13.4385 461.809 12.5947C461 11.7451 460.596 10.6113 460.596 9.19336V8.89453C460.596 7.95117 460.774 7.11035 461.132 6.37207C461.495 5.62793 461.999 5.04785 462.644 4.63184C463.294 4.20996 463.997 3.99902 464.753 3.99902C465.989 3.99902 466.95 4.40625 467.636 5.2207C468.321 6.03516 468.664 7.20117 468.664 8.71875V9.39551H462.222C462.245 10.333 462.518 11.0918 463.039 11.6719C463.566 12.2461 464.234 12.5332 465.043 12.5332C465.617 12.5332 466.104 12.416 466.502 12.1816C466.9 11.9473 467.249 11.6367 467.548 11.25L468.541 12.0234C467.744 13.248 466.549 13.8604 464.955 13.8604ZM464.753 5.33496C464.097 5.33496 463.546 5.5752 463.101 6.05566C462.655 6.53027 462.38 7.19824 462.274 8.05957H467.038V7.93652C466.991 7.11035 466.769 6.47168 466.37 6.02051C465.972 5.56348 465.433 5.33496 464.753 5.33496Z" fill="black"/>
<path d="M474.368 12.5332C474.948 12.5332 475.455 12.3574 475.889 12.0059C476.322 11.6543 476.563 11.2148 476.609 10.6875H478.148C478.118 11.2324 477.931 11.751 477.585 12.2432C477.239 12.7354 476.776 13.1279 476.196 13.4209C475.622 13.7139 475.013 13.8604 474.368 13.8604C473.073 13.8604 472.042 13.4297 471.274 12.5684C470.513 11.7012 470.132 10.5176 470.132 9.01758V8.74512C470.132 7.81934 470.302 6.99609 470.642 6.27539C470.982 5.55469 471.468 4.99512 472.101 4.59668C472.739 4.19824 473.492 3.99902 474.359 3.99902C475.426 3.99902 476.311 4.31836 477.014 4.95703C477.723 5.5957 478.101 6.4248 478.148 7.44434H476.609C476.563 6.8291 476.328 6.3252 475.906 5.93262C475.49 5.53418 474.975 5.33496 474.359 5.33496C473.533 5.33496 472.892 5.63379 472.435 6.23145C471.983 6.82324 471.758 7.68164 471.758 8.80664V9.11426C471.758 10.21 471.983 11.0537 472.435 11.6455C472.886 12.2373 473.53 12.5332 474.368 12.5332Z" fill="black"/>
<path d="M482.182 1.87207V4.1748H483.957V5.43164H482.182V11.3291C482.182 11.71 482.261 11.9971 482.419 12.1904C482.577 12.3779 482.847 12.4717 483.228 12.4717C483.415 12.4717 483.673 12.4365 484.001 12.3662V13.6846C483.573 13.8018 483.157 13.8604 482.753 13.8604C482.026 13.8604 481.479 13.6406 481.109 13.2012C480.74 12.7617 480.556 12.1377 480.556 11.3291V5.43164H478.824V4.1748H480.556V1.87207H482.182Z" fill="black"/>
<path d="M491.735 12.7441C491.103 13.4883 490.174 13.8604 488.949 13.8604C487.936 13.8604 487.162 13.5674 486.629 12.9814C486.102 12.3896 485.835 11.5166 485.829 10.3623V4.1748H487.455V10.3184C487.455 11.7598 488.041 12.4805 489.213 12.4805C490.455 12.4805 491.281 12.0176 491.691 11.0918V4.1748H493.317V13.6846H491.771L491.735 12.7441Z" fill="black"/>
<path d="M500.393 5.63379C500.147 5.59277 499.88 5.57227 499.593 5.57227C498.526 5.57227 497.803 6.02637 497.422 6.93457V13.6846H495.796V4.1748H497.378L497.404 5.27344C497.938 4.42383 498.693 3.99902 499.672 3.99902C499.988 3.99902 500.229 4.04004 500.393 4.12207V5.63379Z" fill="black"/>
<path d="M505.666 13.8604C504.377 13.8604 503.328 13.4385 502.52 12.5947C501.711 11.7451 501.307 10.6113 501.307 9.19336V8.89453C501.307 7.95117 501.485 7.11035 501.843 6.37207C502.206 5.62793 502.71 5.04785 503.355 4.63184C504.005 4.20996 504.708 3.99902 505.464 3.99902C506.7 3.99902 507.661 4.40625 508.347 5.2207C509.032 6.03516 509.375 7.20117 509.375 8.71875V9.39551H502.933C502.956 10.333 503.229 11.0918 503.75 11.6719C504.277 12.2461 504.945 12.5332 505.754 12.5332C506.328 12.5332 506.815 12.416 507.213 12.1816C507.611 11.9473 507.96 11.6367 508.259 11.25L509.252 12.0234C508.455 13.248 507.26 13.8604 505.666 13.8604ZM505.464 5.33496C504.808 5.33496 504.257 5.5752 503.812 6.05566C503.366 6.53027 503.091 7.19824 502.985 8.05957H507.749V7.93652C507.702 7.11035 507.48 6.47168 507.081 6.02051C506.683 5.56348 506.144 5.33496 505.464 5.33496Z" fill="black"/>
<path d="M366.105 31.248C366.105 30.6328 366.274 30.0674 366.614 29.5518C366.96 29.0361 367.616 28.4355 368.583 27.75C368.015 27.0586 367.634 26.502 367.44 26.0801C367.247 25.6582 367.15 25.2393 367.15 24.8232C367.15 23.8506 367.438 23.0889 368.012 22.5381C368.586 21.9873 369.365 21.7119 370.35 21.7119C371.229 21.7119 371.955 21.9697 372.529 22.4854C373.104 22.9951 373.391 23.6396 373.391 24.4189C373.391 24.9346 373.259 25.4121 372.995 25.8516C372.737 26.2852 372.283 26.7422 371.633 27.2227L370.692 27.917L373.54 31.3184C373.939 30.5566 374.138 29.71 374.138 28.7783H375.606C375.606 30.2725 375.245 31.5117 374.524 32.4961L376.353 34.6846H374.401L373.549 33.6738C373.115 34.0605 372.606 34.3564 372.02 34.5615C371.44 34.7607 370.848 34.8604 370.244 34.8604C368.996 34.8604 367.994 34.5293 367.238 33.8672C366.482 33.2051 366.105 32.332 366.105 31.248ZM370.244 33.5332C371.106 33.5332 371.894 33.2051 372.608 32.5488L369.488 28.8135L369.198 29.0244C368.22 29.7451 367.731 30.4863 367.731 31.248C367.731 31.9395 367.953 32.4932 368.398 32.9092C368.85 33.3252 369.465 33.5332 370.244 33.5332ZM368.776 24.7705C368.776 25.333 369.122 26.0361 369.814 26.8799L370.851 26.1504C371.249 25.8691 371.522 25.6025 371.668 25.3506C371.815 25.0928 371.888 24.7822 371.888 24.4189C371.888 24.0264 371.741 23.7012 371.448 23.4434C371.155 23.1797 370.786 23.0479 370.341 23.0479C369.86 23.0479 369.48 23.2119 369.198 23.54C368.917 23.8623 368.776 24.2725 368.776 24.7705Z" fill="black"/>
<path d="M385.124 30.6504L385.37 32.3379L385.731 30.8174L388.262 21.8877H389.686L392.155 30.8174L392.507 32.3643L392.779 30.6416L394.766 21.8877H396.462L393.359 34.6846H391.821L389.185 25.3594L388.982 24.3838L388.78 25.3594L386.047 34.6846H384.509L381.415 21.8877H383.103L385.124 30.6504Z" fill="black"/>
<path d="M399.855 34.6846H398.229V25.1748H399.855V34.6846ZM398.097 22.6523C398.097 22.3887 398.176 22.166 398.334 21.9844C398.498 21.8027 398.738 21.7119 399.055 21.7119C399.371 21.7119 399.611 21.8027 399.775 21.9844C399.94 22.166 400.022 22.3887 400.022 22.6523C400.022 22.916 399.94 23.1357 399.775 23.3115C399.611 23.4873 399.371 23.5752 399.055 23.5752C398.738 23.5752 398.498 23.4873 398.334 23.3115C398.176 23.1357 398.097 22.916 398.097 22.6523Z" fill="black"/>
<path d="M407.062 26.6338C406.815 26.5928 406.549 26.5723 406.262 26.5723C405.195 26.5723 404.472 27.0264 404.091 27.9346V34.6846H402.465V25.1748H404.047L404.073 26.2734C404.607 25.4238 405.362 24.999 406.341 24.999C406.657 24.999 406.898 25.04 407.062 25.1221V26.6338Z" fill="black"/>
<path d="M412.335 34.8604C411.046 34.8604 409.997 34.4385 409.189 33.5947C408.38 32.7451 407.976 31.6113 407.976 30.1934V29.8945C407.976 28.9512 408.154 28.1104 408.512 27.3721C408.875 26.6279 409.379 26.0479 410.023 25.6318C410.674 25.21 411.377 24.999 412.133 24.999C413.369 24.999 414.33 25.4062 415.016 26.2207C415.701 27.0352 416.044 28.2012 416.044 29.7188V30.3955H409.602C409.625 31.333 409.898 32.0918 410.419 32.6719C410.946 33.2461 411.614 33.5332 412.423 33.5332C412.997 33.5332 413.483 33.416 413.882 33.1816C414.28 32.9473 414.629 32.6367 414.928 32.25L415.921 33.0234C415.124 34.248 413.929 34.8604 412.335 34.8604ZM412.133 26.335C411.477 26.335 410.926 26.5752 410.481 27.0557C410.035 27.5303 409.76 28.1982 409.654 29.0596H414.418V28.9365C414.371 28.1104 414.148 27.4717 413.75 27.0205C413.352 26.5635 412.813 26.335 412.133 26.335Z" fill="black"/>
<path d="M418.733 34.6846V26.4316H417.231V25.1748H418.733V24.1992C418.733 23.1797 419.006 22.3916 419.551 21.835C420.096 21.2783 420.866 21 421.862 21C422.237 21 422.609 21.0498 422.979 21.1494L422.891 22.4678C422.615 22.415 422.322 22.3887 422.012 22.3887C421.484 22.3887 421.077 22.5439 420.79 22.8545C420.503 23.1592 420.359 23.5986 420.359 24.1729V25.1748H422.39V26.4316H420.359V34.6846H418.733Z" fill="black"/>
<path d="M428.788 26.6338C428.542 26.5928 428.275 26.5723 427.988 26.5723C426.922 26.5723 426.198 27.0264 425.817 27.9346V34.6846H424.191V25.1748H425.773L425.8 26.2734C426.333 25.4238 427.089 24.999 428.067 24.999C428.384 24.999 428.624 25.04 428.788 25.1221V26.6338Z" fill="black"/>
<path d="M435.811 34.6846C435.717 34.4971 435.641 34.1631 435.582 33.6826C434.826 34.4678 433.924 34.8604 432.875 34.8604C431.938 34.8604 431.167 34.5967 430.564 34.0693C429.966 33.5361 429.667 32.8623 429.667 32.0479C429.667 31.0576 430.042 30.29 430.792 29.7451C431.548 29.1943 432.608 28.9189 433.974 28.9189H435.556V28.1719C435.556 27.6035 435.386 27.1523 435.046 26.8184C434.706 26.4785 434.205 26.3086 433.543 26.3086C432.963 26.3086 432.477 26.4551 432.084 26.748C431.691 27.041 431.495 27.3955 431.495 27.8115H429.86C429.86 27.3369 430.027 26.8799 430.361 26.4404C430.701 25.9951 431.158 25.6436 431.732 25.3857C432.313 25.1279 432.948 24.999 433.64 24.999C434.735 24.999 435.594 25.2744 436.215 25.8252C436.836 26.3701 437.158 27.123 437.182 28.084V32.4609C437.182 33.334 437.293 34.0283 437.516 34.5439V34.6846H435.811ZM433.112 33.4453C433.622 33.4453 434.106 33.3135 434.563 33.0498C435.02 32.7861 435.351 32.4434 435.556 32.0215V30.0703H434.281C432.289 30.0703 431.293 30.6533 431.293 31.8193C431.293 32.3291 431.463 32.7275 431.803 33.0146C432.143 33.3018 432.579 33.4453 433.112 33.4453Z" fill="black"/>
<path d="M441.26 25.1748L441.304 26.2295C442.001 25.4092 442.941 24.999 444.125 24.999C445.455 24.999 446.36 25.5088 446.841 26.5283C447.157 26.0713 447.567 25.7021 448.071 25.4209C448.581 25.1396 449.182 24.999 449.873 24.999C451.959 24.999 453.02 26.1035 453.055 28.3125V34.6846H451.429V28.4092C451.429 27.7295 451.273 27.2227 450.963 26.8887C450.652 26.5488 450.131 26.3789 449.398 26.3789C448.795 26.3789 448.294 26.5605 447.896 26.9238C447.497 27.2812 447.266 27.7646 447.201 28.374V34.6846H445.566V28.4531C445.566 27.0703 444.89 26.3789 443.536 26.3789C442.47 26.3789 441.74 26.833 441.348 27.7412V34.6846H439.722V25.1748H441.26Z" fill="black"/>
<path d="M459.462 34.8604C458.173 34.8604 457.124 34.4385 456.315 33.5947C455.507 32.7451 455.103 31.6113 455.103 30.1934V29.8945C455.103 28.9512 455.281 28.1104 455.639 27.3721C456.002 26.6279 456.506 26.0479 457.15 25.6318C457.801 25.21 458.504 24.999 459.26 24.999C460.496 24.999 461.457 25.4062 462.143 26.2207C462.828 27.0352 463.171 28.2012 463.171 29.7188V30.3955H456.729C456.752 31.333 457.024 32.0918 457.546 32.6719C458.073 33.2461 458.741 33.5332 459.55 33.5332C460.124 33.5332 460.61 33.416 461.009 33.1816C461.407 32.9473 461.756 32.6367 462.055 32.25L463.048 33.0234C462.251 34.248 461.056 34.8604 459.462 34.8604ZM459.26 26.335C458.604 26.335 458.053 26.5752 457.607 27.0557C457.162 27.5303 456.887 28.1982 456.781 29.0596H461.545V28.9365C461.498 28.1104 461.275 27.4717 460.877 27.0205C460.479 26.5635 459.94 26.335 459.26 26.335Z" fill="black"/>
<path fill-rule="evenodd" clip-rule="evenodd" d="M343.816 45.6846H491.523V46.6846H344.231L309.877 81.0381L309.17 80.331L343.816 45.6846Z" fill="black"/>
<path d="M393.464 441.888V450.589C393.458 451.796 393.077 452.783 392.321 453.551C391.571 454.318 390.552 454.749 389.263 454.843L388.815 454.86C387.414 454.86 386.298 454.482 385.466 453.727C384.634 452.971 384.212 451.931 384.2 450.606V441.888H385.87V450.554C385.87 451.479 386.125 452.2 386.635 452.716C387.145 453.226 387.871 453.48 388.815 453.48C389.77 453.48 390.499 453.226 391.003 452.716C391.513 452.206 391.768 451.488 391.768 450.562V441.888H393.464Z" fill="black"/>
<path d="M401.409 452.162C401.409 451.723 401.242 451.383 400.908 451.143C400.58 450.896 400.003 450.686 399.177 450.51C398.357 450.334 397.703 450.123 397.217 449.877C396.736 449.631 396.379 449.338 396.145 448.998C395.916 448.658 395.802 448.254 395.802 447.785C395.802 447.006 396.13 446.347 396.786 445.808C397.448 445.269 398.292 444.999 399.317 444.999C400.396 444.999 401.269 445.277 401.937 445.834C402.61 446.391 402.947 447.103 402.947 447.97H401.313C401.313 447.524 401.122 447.141 400.741 446.818C400.366 446.496 399.892 446.335 399.317 446.335C398.726 446.335 398.263 446.464 397.929 446.722C397.595 446.979 397.428 447.316 397.428 447.732C397.428 448.125 397.583 448.421 397.894 448.62C398.204 448.819 398.764 449.01 399.572 449.191C400.387 449.373 401.046 449.59 401.55 449.842C402.054 450.094 402.426 450.398 402.666 450.756C402.912 451.107 403.035 451.538 403.035 452.048C403.035 452.897 402.695 453.58 402.016 454.096C401.336 454.605 400.454 454.86 399.37 454.86C398.608 454.86 397.935 454.726 397.349 454.456C396.763 454.187 396.303 453.812 395.969 453.331C395.641 452.845 395.477 452.32 395.477 451.758H397.103C397.132 452.303 397.349 452.736 397.753 453.059C398.163 453.375 398.702 453.533 399.37 453.533C399.985 453.533 400.478 453.41 400.847 453.164C401.222 452.912 401.409 452.578 401.409 452.162Z" fill="black"/>
<path d="M409.1 454.86C407.811 454.86 406.762 454.438 405.953 453.595C405.145 452.745 404.74 451.611 404.74 450.193V449.895C404.74 448.951 404.919 448.11 405.276 447.372C405.64 446.628 406.144 446.048 406.788 445.632C407.439 445.21 408.142 444.999 408.898 444.999C410.134 444.999 411.095 445.406 411.78 446.221C412.466 447.035 412.809 448.201 412.809 449.719V450.396H406.366C406.39 451.333 406.662 452.092 407.184 452.672C407.711 453.246 408.379 453.533 409.188 453.533C409.762 453.533 410.248 453.416 410.647 453.182C411.045 452.947 411.394 452.637 411.692 452.25L412.686 453.023C411.889 454.248 410.693 454.86 409.1 454.86ZM408.898 446.335C408.241 446.335 407.69 446.575 407.245 447.056C406.8 447.53 406.524 448.198 406.419 449.06H411.183V448.937C411.136 448.11 410.913 447.472 410.515 447.021C410.116 446.563 409.577 446.335 408.898 446.335Z" fill="black"/>
<path d="M419.295 446.634C419.049 446.593 418.782 446.572 418.495 446.572C417.429 446.572 416.705 447.026 416.324 447.935V454.685H414.698V445.175H416.28L416.307 446.273C416.84 445.424 417.596 444.999 418.574 444.999C418.891 444.999 419.131 445.04 419.295 445.122V446.634Z" fill="black"/>
<path d="M427.328 454.685H425.641V441.888H427.328V454.685Z" fill="black"/>
<path d="M431.705 445.175L431.758 446.37C432.484 445.456 433.434 444.999 434.606 444.999C436.615 444.999 437.629 446.133 437.647 448.4V454.685H436.021V448.392C436.015 447.706 435.857 447.199 435.546 446.871C435.241 446.543 434.764 446.379 434.113 446.379C433.586 446.379 433.123 446.52 432.725 446.801C432.326 447.082 432.016 447.451 431.793 447.908V454.685H430.167V445.175H431.705Z" fill="black"/>
<path d="M442.305 442.872V445.175H444.08V446.432H442.305V452.329C442.305 452.71 442.384 452.997 442.542 453.19C442.7 453.378 442.97 453.472 443.351 453.472C443.538 453.472 443.796 453.437 444.124 453.366V454.685C443.696 454.802 443.28 454.86 442.876 454.86C442.149 454.86 441.602 454.641 441.232 454.201C440.863 453.762 440.679 453.138 440.679 452.329V446.432H438.947V445.175H440.679V442.872H442.305Z" fill="black"/>
<path d="M449.934 454.86C448.645 454.86 447.596 454.438 446.787 453.595C445.979 452.745 445.574 451.611 445.574 450.193V449.895C445.574 448.951 445.753 448.11 446.11 447.372C446.474 446.628 446.978 446.048 447.622 445.632C448.273 445.21 448.976 444.999 449.732 444.999C450.968 444.999 451.929 445.406 452.614 446.221C453.3 447.035 453.643 448.201 453.643 449.719V450.396H447.2C447.224 451.333 447.496 452.092 448.018 452.672C448.545 453.246 449.213 453.533 450.022 453.533C450.596 453.533 451.082 453.416 451.481 453.182C451.879 452.947 452.228 452.637 452.526 452.25L453.52 453.023C452.723 454.248 451.527 454.86 449.934 454.86ZM449.732 446.335C449.075 446.335 448.524 446.575 448.079 447.056C447.634 447.53 447.358 448.198 447.253 449.06H452.017V448.937C451.97 448.11 451.747 447.472 451.349 447.021C450.95 446.563 450.411 446.335 449.732 446.335Z" fill="black"/>
<path d="M460.129 446.634C459.883 446.593 459.616 446.572 459.329 446.572C458.263 446.572 457.539 447.026 457.158 447.935V454.685H455.532V445.175H457.114L457.141 446.273C457.674 445.424 458.43 444.999 459.408 444.999C459.725 444.999 459.965 445.04 460.129 445.122V446.634Z" fill="black"/>
<path d="M462.572 454.685V446.432H461.069V445.175H462.572V444.199C462.572 443.18 462.845 442.392 463.39 441.835C463.935 441.278 464.705 441 465.701 441C466.076 441 466.448 441.05 466.817 441.149L466.73 442.468C466.454 442.415 466.161 442.389 465.851 442.389C465.323 442.389 464.916 442.544 464.629 442.854C464.342 443.159 464.198 443.599 464.198 444.173V445.175H466.229V446.432H464.198V454.685H462.572Z" fill="black"/>
<path d="M473.901 454.685C473.808 454.497 473.732 454.163 473.673 453.683C472.917 454.468 472.015 454.86 470.966 454.86C470.028 454.86 469.258 454.597 468.654 454.069C468.057 453.536 467.758 452.862 467.758 452.048C467.758 451.058 468.133 450.29 468.883 449.745C469.639 449.194 470.699 448.919 472.065 448.919H473.647V448.172C473.647 447.604 473.477 447.152 473.137 446.818C472.797 446.479 472.296 446.309 471.634 446.309C471.054 446.309 470.567 446.455 470.175 446.748C469.782 447.041 469.586 447.396 469.586 447.812H467.951C467.951 447.337 468.118 446.88 468.452 446.44C468.792 445.995 469.249 445.644 469.823 445.386C470.403 445.128 471.039 444.999 471.731 444.999C472.826 444.999 473.685 445.274 474.306 445.825C474.927 446.37 475.249 447.123 475.273 448.084V452.461C475.273 453.334 475.384 454.028 475.607 454.544V454.685H473.901ZM471.203 453.445C471.713 453.445 472.196 453.313 472.653 453.05C473.11 452.786 473.441 452.443 473.647 452.021V450.07H472.372C470.38 450.07 469.384 450.653 469.384 451.819C469.384 452.329 469.554 452.728 469.894 453.015C470.233 453.302 470.67 453.445 471.203 453.445Z" fill="black"/>
<path d="M481.636 453.533C482.216 453.533 482.723 453.357 483.156 453.006C483.59 452.654 483.83 452.215 483.877 451.688H485.415C485.386 452.232 485.198 452.751 484.853 453.243C484.507 453.735 484.044 454.128 483.464 454.421C482.89 454.714 482.28 454.86 481.636 454.86C480.341 454.86 479.31 454.43 478.542 453.568C477.78 452.701 477.399 451.518 477.399 450.018V449.745C477.399 448.819 477.569 447.996 477.909 447.275C478.249 446.555 478.735 445.995 479.368 445.597C480.007 445.198 480.76 444.999 481.627 444.999C482.693 444.999 483.578 445.318 484.281 445.957C484.99 446.596 485.368 447.425 485.415 448.444H483.877C483.83 447.829 483.596 447.325 483.174 446.933C482.758 446.534 482.242 446.335 481.627 446.335C480.801 446.335 480.159 446.634 479.702 447.231C479.251 447.823 479.025 448.682 479.025 449.807V450.114C479.025 451.21 479.251 452.054 479.702 452.646C480.153 453.237 480.798 453.533 481.636 453.533Z" fill="black"/>
<path d="M491.19 454.86C489.9 454.86 488.852 454.438 488.043 453.595C487.234 452.745 486.83 451.611 486.83 450.193V449.895C486.83 448.951 487.009 448.11 487.366 447.372C487.73 446.628 488.233 446.048 488.878 445.632C489.528 445.21 490.232 444.999 490.987 444.999C492.224 444.999 493.185 445.406 493.87 446.221C494.556 447.035 494.898 448.201 494.898 449.719V450.396H488.456C488.48 451.333 488.752 452.092 489.273 452.672C489.801 453.246 490.469 453.533 491.277 453.533C491.852 453.533 492.338 453.416 492.736 453.182C493.135 452.947 493.483 452.637 493.782 452.25L494.775 453.023C493.979 454.248 492.783 454.86 491.19 454.86ZM490.987 446.335C490.331 446.335 489.78 446.575 489.335 447.056C488.89 447.53 488.614 448.198 488.509 449.06H493.273V448.937C493.226 448.11 493.003 447.472 492.605 447.021C492.206 446.563 491.667 446.335 490.987 446.335Z" fill="black"/>
<path d="M501.508 454.685V441.888H505.12C506.233 441.888 507.218 442.134 508.073 442.626C508.929 443.118 509.588 443.818 510.051 444.727C510.52 445.635 510.757 446.678 510.763 447.855V448.673C510.763 449.88 510.528 450.938 510.06 451.846C509.597 452.754 508.932 453.451 508.065 453.938C507.203 454.424 506.198 454.673 505.05 454.685H501.508ZM503.195 443.276V453.305H504.971C506.272 453.305 507.282 452.9 508.003 452.092C508.73 451.283 509.093 450.132 509.093 448.638V447.891C509.093 446.438 508.75 445.31 508.065 444.507C507.385 443.698 506.418 443.288 505.164 443.276H503.195Z" fill="black"/>
<path d="M517.012 454.86C515.723 454.86 514.674 454.438 513.865 453.595C513.057 452.745 512.652 451.611 512.652 450.193V449.895C512.652 448.951 512.831 448.11 513.189 447.372C513.552 446.628 514.056 446.048 514.7 445.632C515.351 445.21 516.054 444.999 516.81 444.999C518.046 444.999 519.007 445.406 519.692 446.221C520.378 447.035 520.721 448.201 520.721 449.719V450.396H514.278C514.302 451.333 514.574 452.092 515.096 452.672C515.623 453.246 516.291 453.533 517.1 453.533C517.674 453.533 518.16 453.416 518.559 453.182C518.957 452.947 519.306 452.637 519.605 452.25L520.598 453.023C519.801 454.248 518.606 454.86 517.012 454.86ZM516.81 446.335C516.153 446.335 515.603 446.575 515.157 447.056C514.712 447.53 514.437 448.198 514.331 449.06H519.095V448.937C519.048 448.11 518.825 447.472 518.427 447.021C518.028 446.563 517.489 446.335 516.81 446.335Z" fill="black"/>
<path d="M528.148 452.162C528.148 451.723 527.981 451.383 527.647 451.143C527.318 450.896 526.741 450.686 525.915 450.51C525.095 450.334 524.441 450.123 523.955 449.877C523.475 449.631 523.117 449.338 522.883 448.998C522.654 448.658 522.54 448.254 522.54 447.785C522.54 447.006 522.868 446.347 523.524 445.808C524.187 445.269 525.03 444.999 526.056 444.999C527.134 444.999 528.007 445.277 528.675 445.834C529.349 446.391 529.686 447.103 529.686 447.97H528.051C528.051 447.524 527.86 447.141 527.48 446.818C527.105 446.496 526.63 446.335 526.056 446.335C525.464 446.335 525.001 446.464 524.667 446.722C524.333 446.979 524.166 447.316 524.166 447.732C524.166 448.125 524.321 448.421 524.632 448.62C524.942 448.819 525.502 449.01 526.311 449.191C527.125 449.373 527.784 449.59 528.288 449.842C528.792 450.094 529.164 450.398 529.404 450.756C529.65 451.107 529.773 451.538 529.773 452.048C529.773 452.897 529.434 453.58 528.754 454.096C528.074 454.605 527.192 454.86 526.108 454.86C525.347 454.86 524.673 454.726 524.087 454.456C523.501 454.187 523.041 453.812 522.707 453.331C522.379 452.845 522.215 452.32 522.215 451.758H523.841C523.87 452.303 524.087 452.736 524.491 453.059C524.901 453.375 525.44 453.533 526.108 453.533C526.724 453.533 527.216 453.41 527.585 453.164C527.96 452.912 528.148 452.578 528.148 452.162Z" fill="black"/>
<path d="M533.658 454.685H532.032V445.175H533.658V454.685ZM531.9 442.652C531.9 442.389 531.98 442.166 532.138 441.984C532.302 441.803 532.542 441.712 532.858 441.712C533.175 441.712 533.415 441.803 533.579 441.984C533.743 442.166 533.825 442.389 533.825 442.652C533.825 442.916 533.743 443.136 533.579 443.312C533.415 443.487 533.175 443.575 532.858 443.575C532.542 443.575 532.302 443.487 532.138 443.312C531.98 443.136 531.9 442.916 531.9 442.652Z" fill="black"/>
<path d="M535.882 449.851C535.882 448.368 536.225 447.19 536.91 446.317C537.596 445.438 538.504 444.999 539.635 444.999C540.795 444.999 541.7 445.409 542.351 446.229L542.43 445.175H543.915V454.456C543.915 455.687 543.549 456.656 542.816 457.365C542.09 458.074 541.111 458.429 539.881 458.429C539.195 458.429 538.524 458.282 537.868 457.989C537.212 457.696 536.711 457.295 536.365 456.785L537.209 455.81C537.906 456.671 538.759 457.102 539.767 457.102C540.558 457.102 541.173 456.879 541.612 456.434C542.058 455.988 542.28 455.361 542.28 454.553V453.735C541.63 454.485 540.742 454.86 539.617 454.86C538.504 454.86 537.602 454.412 536.91 453.516C536.225 452.619 535.882 451.397 535.882 449.851ZM537.517 450.035C537.517 451.107 537.736 451.951 538.176 452.566C538.615 453.176 539.231 453.48 540.022 453.48C541.047 453.48 541.8 453.015 542.28 452.083V447.741C541.782 446.833 541.035 446.379 540.039 446.379C539.248 446.379 538.63 446.687 538.185 447.302C537.739 447.917 537.517 448.828 537.517 450.035Z" fill="black"/>
<path d="M547.914 445.175L547.967 446.37C548.693 445.456 549.643 444.999 550.815 444.999C552.824 444.999 553.838 446.133 553.856 448.4V454.685H552.23V448.392C552.224 447.706 552.065 447.199 551.755 446.871C551.45 446.543 550.973 446.379 550.322 446.379C549.795 446.379 549.332 446.52 548.934 446.801C548.535 447.082 548.225 447.451 548.002 447.908V454.685H546.376V445.175H547.914Z" fill="black"/>
<path fill-rule="evenodd" clip-rule="evenodd" d="M382.231 464.685L348.377 430.831L347.67 431.538L381.816 465.685H514.023V464.685H382.231Z" fill="black"/>
</svg>
