<svg width="30" height="23" viewBox="0 0 30 23" fill="none" xmlns="http://www.w3.org/2000/svg">
<g filter="url(#filter0_d)">
<path d="M25.2904 0.462891H4.70978L4.336 0.889424V13.2372C4.336 13.6201 4.65375 13.9305 5.04567 13.9305H25.5704L26.0001 13.6357V1.15623C26.0001 0.773273 25.6823 0.462891 25.2904 0.462891Z" fill="#009638"/>
<path d="M4.70967 11.5558V0.462891C4.31775 0.462891 4 0.773273 4 1.15619V13.6357C4 14.0186 4.31775 14.329 4.70967 14.329H25.2902C25.6821 14.329 25.9999 14.0186 25.9999 13.6357H6.83871C5.66288 13.6357 4.70967 12.7045 4.70967 11.5558Z" fill="#009638"/>
<path d="M22.9124 7.2479L15.3691 2.76223C15.1424 2.62744 14.8577 2.62744 14.6311 2.76223L7.08774 7.2479C6.97417 7.31544 6.97417 7.47651 7.08774 7.54401L14.631 12.0297C14.8577 12.1645 15.1424 12.1645 15.369 12.0297L22.9123 7.54401C23.026 7.47647 23.026 7.31544 22.9124 7.2479Z" fill="#F6D800"/>
<path d="M15 4.6228C13.9445 4.6228 13.0235 5.1856 12.5344 6.02074L12.2501 6.70506C12.1921 6.92594 12.1613 7.15745 12.1613 7.39596C12.1613 8.92756 13.4322 10.1692 14.9999 10.1692C16.2819 10.1692 17.3654 9.33902 17.7178 8.19895L17.8378 7.46397C17.8383 7.44134 17.8386 7.41867 17.8386 7.39596C17.8387 5.86441 16.5677 4.6228 15 4.6228Z" fill="#002672"/>
<path d="M12.2501 6.70507C14.2221 6.72069 16.1081 7.23739 17.7179 8.19901C17.7902 7.96541 17.8316 7.71917 17.8379 7.46403C16.2521 6.57381 14.4334 6.07847 12.5344 6.02075C12.4103 6.2327 12.3138 6.46269 12.2501 6.70507Z" fill="white"/>
</g>
<defs>
<filter id="filter0_d" x="0" y="0.462891" width="30.0001" height="21.8661" filterUnits="userSpaceOnUse" color-interpolation-filters="sRGB">
<feFlood flood-opacity="0" result="BackgroundImageFix"/>
<feColorMatrix in="SourceAlpha" type="matrix" values="0 0 0 0 0 0 0 0 0 0 0 0 0 0 0 0 0 0 127 0"/>
<feOffset dy="4"/>
<feGaussianBlur stdDeviation="2"/>
<feColorMatrix type="matrix" values="0 0 0 0 0 0 0 0 0 0 0 0 0 0 0 0 0 0 0.25 0"/>
<feBlend mode="normal" in2="BackgroundImageFix" result="effect1_dropShadow"/>
<feBlend mode="normal" in="SourceGraphic" in2="effect1_dropShadow" result="shape"/>
</filter>
</defs>
</svg>
