<svg width="387" height="387" viewBox="0 0 387 387" fill="none" xmlns="http://www.w3.org/2000/svg">
<path d="M330.836 154.817H274.158V62.7134C274.158 60.19 272.289 57.6666 269.798 56.4049C267.307 55.7741 264.192 56.4049 262.947 58.9283L226.822 110.658H158.932L123.431 58.9283C122.185 56.4049 119.071 55.7741 116.579 56.4049C114.088 57.0357 112.219 59.5591 112.219 62.7134V154.817H56.1639C52.4269 154.817 49.9355 157.34 49.9355 161.125C49.9355 164.91 52.4269 167.434 56.1639 167.434H112.219V180.051H61.7695C58.0325 180.051 55.5411 182.574 55.5411 186.359C55.5411 190.144 58.0325 192.667 61.7695 192.667H112.219V217.901C112.219 220.425 113.465 222.317 115.957 223.579L190.697 261.43C191.32 262.06 191.943 262.06 193.189 262.06C194.434 262.06 195.057 262.06 195.68 261.43L270.421 223.579C272.289 222.317 274.158 220.425 274.158 217.901V193.298H323.362C327.099 193.298 329.591 190.775 329.591 186.99C329.591 183.205 327.099 180.681 323.362 180.681H274.158V167.434H330.836C334.573 167.434 337.065 164.91 337.065 161.125C337.065 157.34 333.95 154.817 330.836 154.817ZM124.676 82.9004L150.213 120.751C151.458 122.644 153.327 123.274 155.195 123.274H229.936C231.805 123.274 233.673 122.013 234.919 120.751L261.078 82.9004V154.817H224.953C224.331 154.817 224.331 154.817 223.708 154.817C221.839 154.817 220.594 155.448 219.348 156.709L193.189 183.836L167.029 157.34C165.784 155.448 163.915 154.817 162.047 154.817H124.676V82.9004ZM261.701 180.681H236.165C232.428 180.681 229.936 183.205 229.936 186.99C229.936 190.775 232.428 193.298 236.165 193.298H261.701V214.116C261.701 214.116 223.102 248.813 193.189 248.813C163.275 248.813 124.676 214.116 124.676 214.116V192.667H150.213C153.95 192.667 156.441 190.144 156.441 186.359C156.441 182.574 153.95 180.051 150.213 180.051H124.676V167.434H159.555L188.829 197.083C190.074 198.345 191.943 198.976 193.189 198.976C194.434 198.976 196.303 198.345 197.549 197.083L226.822 167.434H261.701V180.681Z" fill="black"/>
<path d="M271.044 243.766C269.175 242.504 266.684 242.504 264.815 243.766L193.189 279.093L120.939 243.135C119.071 241.873 116.579 242.504 114.711 243.135C112.842 244.397 111.597 246.289 111.597 248.182V323.883C111.597 325.776 112.842 328.299 114.711 328.93C115.957 329.561 116.579 330.192 117.825 330.192C119.071 330.192 119.694 330.192 120.316 329.561L193.189 294.234L265.438 330.192C266.061 330.823 267.307 330.823 267.929 330.823C269.175 330.823 270.421 330.192 271.044 329.561C272.912 328.299 274.158 326.407 274.158 324.514V248.813C274.158 246.92 272.912 245.028 271.044 243.766ZM124.676 314.421V258.906L180.109 286.663L124.676 314.421ZM261.701 314.421L205.645 286.663L261.078 258.906V314.421H261.701Z" fill="black"/>
</svg>
