<svg width="300" height="299" viewBox="0 0 300 299" fill="none" xmlns="http://www.w3.org/2000/svg">
<path d="M140.716 40.7637L149.001 22.5359L134.087 0.662598C59.1878 8.94795 0.858887 72.2481 0.858887 149.136C0.858887 154.107 1.1903 158.747 1.52171 163.718L25.3835 147.479L41.2914 155.433C41.2914 153.445 40.96 151.456 40.96 149.136C41.2914 92.1329 85.0381 45.4035 140.716 40.7637Z" fill="#0CF7E8"/>
<path d="M298.8 138.862L275.601 155.764L258.699 148.142C258.699 148.473 258.699 148.805 258.699 149.136C258.699 206.139 214.289 253.2 158.28 257.509L150.326 272.754L165.903 297.61C240.802 289.324 299.131 226.024 299.131 149.136C299.131 145.491 299.131 142.176 298.8 138.862Z" fill="#E6E100"/>
<path d="M258.699 143.502L275.27 150.793L298.469 133.891C290.846 58.6603 227.215 0 149.995 0C146.35 0 142.373 0.331414 138.727 0.331414L153.641 22.2048L145.356 40.4325C147.013 40.4325 148.338 40.4325 149.995 40.4325C207.993 40.4325 255.717 86.1677 258.699 143.502Z" fill="#61FA16"/>
<path d="M41.6232 160.073L25.7153 152.119L1.85352 168.027C11.4645 241.6 74.1018 298.272 149.996 298.272C153.641 298.272 157.618 297.941 161.264 297.941L145.687 273.085L153.641 258.171C152.316 258.171 151.321 258.171 149.996 258.171C93.6552 257.84 47.2573 215.087 41.6232 160.073Z" fill="#0C7DED"/>
</svg>
