<svg width="62" height="62" viewBox="0 0 62 62" fill="none" xmlns="http://www.w3.org/2000/svg">
<path d="M62 31C62 48.1208 48.1208 62 31 62C13.8792 62 0 48.1208 0 31C0 13.8792 13.8792 0 31 0C48.1208 0 62 13.8792 62 31Z" fill="#222233"/>
<path d="M53.0022 24.8027H43.9219V10.0471C43.9219 9.64285 43.6226 9.23858 43.2234 9.03645C42.8243 8.93539 42.3254 9.03645 42.1258 9.44071L36.3384 17.7281H25.462L19.7744 9.44071C19.5748 9.03645 19.0759 8.93539 18.6768 9.03645C18.2777 9.13752 17.9783 9.54178 17.9783 10.0471V24.8027H8.99783C8.39913 24.8027 8 25.207 8 25.8133C8 26.4197 8.39913 26.824 8.99783 26.824H17.9783V28.8453H9.89588C9.29718 28.8453 8.89805 29.2496 8.89805 29.856C8.89805 30.4624 9.29718 30.8666 9.89588 30.8666H17.9783V34.9093C17.9783 35.3135 18.1779 35.6167 18.577 35.8188L30.551 41.8828C30.6508 41.9839 30.7505 41.9838 30.9501 41.9838C31.1497 41.9838 31.2495 41.9839 31.3492 41.8828L43.3232 35.8188C43.6226 35.6167 43.9219 35.3135 43.9219 34.9093V30.9677H51.8048C52.4035 30.9677 52.8026 30.5634 52.8026 29.957C52.8026 29.3506 52.4035 28.9464 51.8048 28.9464H43.9219V26.824H53.0022C53.6009 26.824 54 26.4197 54 25.8133C54 25.207 53.5011 24.8027 53.0022 24.8027ZM19.974 13.2812L24.0651 19.3451C24.2646 19.6483 24.564 19.7494 24.8633 19.7494H36.8373C37.1367 19.7494 37.436 19.5473 37.6356 19.3451L41.8265 13.2812V24.8027H36.039C35.9393 24.8027 35.9393 24.8027 35.8395 24.8027C35.5401 24.8027 35.3406 24.9038 35.141 25.1059L30.9501 29.4517L26.7592 25.207C26.5597 24.9038 26.2603 24.8027 25.961 24.8027H19.974V13.2812ZM41.9262 28.9464H37.8351C37.2364 28.9464 36.8373 29.3506 36.8373 29.957C36.8373 30.5634 37.2364 30.9677 37.8351 30.9677H41.9262V34.3029C41.9262 34.3029 35.7425 39.8615 30.9501 39.8615C26.1577 39.8615 19.974 34.3029 19.974 34.3029V30.8666H24.0651C24.6638 30.8666 25.0629 30.4624 25.0629 29.856C25.0629 29.2496 24.6638 28.8453 24.0651 28.8453H19.974V26.824H25.5618L30.2516 31.5741C30.4512 31.7762 30.7505 31.8773 30.9501 31.8773C31.1497 31.8773 31.449 31.7762 31.6486 31.5741L36.3384 26.824H41.9262V28.9464Z" fill="white"/>
<path d="M43.423 39.0529C43.1236 38.8508 42.7245 38.8508 42.4252 39.0529L30.9501 44.7126L19.3753 38.9519C19.0759 38.7497 18.6768 38.8508 18.3774 38.9519C18.0781 39.154 17.8785 39.4572 17.8785 39.7604V51.8883C17.8785 52.1915 18.0781 52.5957 18.3774 52.6968C18.577 52.7979 18.6768 52.8989 18.8764 52.8989C19.0759 52.8989 19.1757 52.8989 19.2755 52.7979L30.9501 47.1382L42.5249 52.8989C42.6247 53 42.8243 53 42.9241 53C43.1236 53 43.3232 52.8989 43.423 52.7979C43.7223 52.5957 43.9219 52.2925 43.9219 51.9893V39.8615C43.9219 39.5583 43.7223 39.2551 43.423 39.0529ZM19.974 50.3723V41.4785L28.8547 45.9254L19.974 50.3723ZM41.9262 50.3723L32.9458 45.9254L41.8265 41.4785V50.3723H41.9262Z" fill="white"/>
</svg>
