<svg width="10" height="10" viewBox="0 0 10 10" fill="none" xmlns="http://www.w3.org/2000/svg">
<path d="M0.781288 0.600317C0.731561 0.605004 0.685386 0.628127 0.651844 0.665137C0.618303 0.702147 0.599823 0.750365 0.600038 0.800311V9.2001C0.600042 9.25314 0.621115 9.30401 0.658621 9.34152C0.696127 9.37902 0.746996 9.40009 0.800038 9.4001H9.20004C9.25308 9.40009 9.30395 9.37902 9.34146 9.34152C9.37896 9.30401 9.40003 9.25314 9.40004 9.2001V5.00021C9.40041 4.97371 9.39552 4.9474 9.38563 4.9228C9.37575 4.89821 9.36108 4.87583 9.34247 4.85695C9.32386 4.83808 9.30169 4.82309 9.27724 4.81286C9.25278 4.80263 9.22654 4.79736 9.20004 4.79736C9.17353 4.79736 9.14729 4.80263 9.12284 4.81286C9.09839 4.82309 9.07622 4.83808 9.05761 4.85695C9.039 4.87583 9.02433 4.89821 9.01444 4.9228C9.00456 4.9474 8.99966 4.97371 9.00004 5.00021V9.00011H1.00004V1.00031H5.00004C5.02654 1.00068 5.05285 0.995783 5.07745 0.985901C5.10204 0.976018 5.12443 0.961351 5.1433 0.942743C5.16217 0.924135 5.17716 0.901959 5.18739 0.877509C5.19762 0.853058 5.20289 0.826816 5.20289 0.800311C5.20289 0.773807 5.19762 0.747571 5.18739 0.72312C5.17716 0.698669 5.16217 0.676494 5.1433 0.657886C5.12443 0.639277 5.10204 0.624604 5.07745 0.614722C5.05285 0.604839 5.02654 0.599943 5.00004 0.600317H0.800038C0.793792 0.600024 0.787535 0.600024 0.781288 0.600317V0.600317ZM6.58129 0.600317C6.55502 0.601541 6.52925 0.607925 6.50545 0.61911C6.48164 0.630295 6.46028 0.64606 6.44257 0.665503C6.42487 0.684946 6.41116 0.707688 6.40224 0.732428C6.39333 0.757168 6.38937 0.783424 6.3906 0.809692C6.39183 0.835961 6.39823 0.861725 6.40942 0.885523C6.42061 0.90932 6.43638 0.930681 6.45583 0.948383C6.47528 0.966084 6.49803 0.979781 6.52277 0.98869C6.54751 0.9976 6.57377 1.00154 6.60004 1.00031H8.71879L4.25941 5.45957C4.23756 5.47718 4.21965 5.4992 4.20686 5.52419C4.19407 5.54918 4.18668 5.57658 4.18518 5.60461C4.18368 5.63264 4.18809 5.66067 4.19813 5.68688C4.20818 5.7131 4.22363 5.7369 4.24348 5.75675C4.26333 5.7766 4.28713 5.79204 4.31335 5.80209C4.33956 5.81213 4.36759 5.81655 4.39562 5.81504C4.42366 5.81354 4.45106 5.80615 4.47605 5.79337C4.50103 5.78058 4.52305 5.76267 4.54066 5.74081L9.00004 1.28155V3.40025C8.99966 3.42675 9.00456 3.45306 9.01444 3.47765C9.02433 3.50225 9.039 3.52463 9.05761 3.54351C9.07622 3.56238 9.09839 3.57736 9.12284 3.58759C9.14729 3.59782 9.17353 3.60309 9.20004 3.60309C9.22654 3.60309 9.25278 3.59782 9.27724 3.58759C9.30169 3.57736 9.32386 3.56238 9.34247 3.54351C9.36108 3.52463 9.37575 3.50225 9.38563 3.47765C9.39552 3.45306 9.40041 3.42675 9.40004 3.40025V0.800311C9.40003 0.747271 9.37896 0.696404 9.34145 0.658899C9.30395 0.621394 9.25308 0.600323 9.20004 0.600317H6.60004C6.59379 0.600024 6.58754 0.600024 6.58129 0.600317V0.600317Z" fill="#C7D0D9"/>
</svg>
