<svg width="30" height="23" viewBox="0 0 30 23" fill="none" xmlns="http://www.w3.org/2000/svg">
<g filter="url(#filter0_d)">
<path d="M25.2902 0.462891H15.3548L4.38672 7.87868V14.0424H25.2902L25.9999 13.6357V12.3481L25.538 11.919V10.7017L25.9999 10.3672V8.38636L25.5845 7.9976V6.75226L25.9999 6.40544V4.4246L25.5845 4.06574V2.97432L25.9999 2.44377V1.15619C25.9999 0.773273 25.6821 0.462891 25.2902 0.462891Z" fill="#CC0007"/>
<path d="M15.0144 2.44385H26.0001V4.42472H15.0144V2.44385Z" fill="#F2F2F6"/>
<path d="M15 6.40552L15.3548 8.38639H26V6.40552H15Z" fill="#F2F2F6"/>
<path d="M4.70967 11.5558V8.02563L4 8.38639V10.3673L4.30078 10.6177V11.919L4 12.3481V13.6357C4 14.0186 4.31775 14.329 4.70967 14.329H25.2902C25.6821 14.329 25.9999 14.0186 25.9999 13.6357H6.83871C5.66288 13.6357 4.70967 12.7045 4.70967 11.5558Z" fill="#CC0007"/>
<path d="M15.3549 0.462891H4.70967L4.25781 1.15619L4.70967 8.38635H15.3549V0.462891Z" fill="#00004F"/>
<path d="M4.70972 0.462891C4.31777 0.462891 4 0.773272 4 1.15619V8.38635H4.70972V0.462891Z" fill="#00004F"/>
<path d="M5.42283 2.00851C5.22668 2.00851 5.06628 1.85327 5.06628 1.66185C5.06628 1.47042 5.22325 1.31519 5.4194 1.31519H5.42288C5.61903 1.31519 5.77771 1.47042 5.77771 1.66185C5.77771 1.85327 5.61894 2.00851 5.42283 2.00851Z" fill="white"/>
<path d="M5.42283 4.78168C5.22668 4.78168 5.06628 4.62645 5.06628 4.43503C5.06628 4.24361 5.22325 4.08838 5.4194 4.08838H5.42288C5.61903 4.08838 5.77771 4.24361 5.77771 4.43503C5.77771 4.62645 5.61894 4.78168 5.42283 4.78168Z" fill="white"/>
<path d="M5.42283 7.55487C5.22668 7.55487 5.06628 7.39964 5.06628 7.20822C5.06628 7.0168 5.22325 6.86157 5.4194 6.86157H5.42288C5.61903 6.86157 5.77771 7.0168 5.77771 7.20822C5.77771 7.39964 5.61894 7.55487 5.42283 7.55487Z" fill="white"/>
<path d="M5.42283 3.39521C5.22668 3.39521 5.06628 3.23998 5.06628 3.04856C5.06628 2.85714 5.22325 2.7019 5.4194 2.7019H5.42288C5.61903 2.7019 5.77771 2.85714 5.77771 3.04856C5.77767 3.23998 5.61894 3.39521 5.42283 3.39521Z" fill="#F2F2F6"/>
<path d="M5.42283 6.16816C5.22668 6.16816 5.06628 6.01293 5.06628 5.82151C5.06628 5.63009 5.22325 5.47485 5.4194 5.47485H5.42288C5.61903 5.47485 5.77771 5.63009 5.77771 5.82151C5.77771 6.01293 5.61894 6.16816 5.42283 6.16816Z" fill="#F2F2F6"/>
<path d="M13.9389 2.00851C13.7428 2.00851 13.5824 1.85327 13.5824 1.66185C13.5824 1.47042 13.7394 1.31519 13.9355 1.31519H13.939C14.1351 1.31519 14.2938 1.47042 14.2938 1.66185C14.2938 1.85327 14.1351 2.00851 13.9389 2.00851Z" fill="white"/>
<path d="M13.9389 4.78168C13.7428 4.78168 13.5824 4.62645 13.5824 4.43503C13.5824 4.24361 13.7394 4.08838 13.9355 4.08838H13.939C14.1351 4.08838 14.2938 4.24361 14.2938 4.43503C14.2938 4.62645 14.1351 4.78168 13.9389 4.78168Z" fill="white"/>
<path d="M13.9389 7.55487C13.7428 7.55487 13.5824 7.39964 13.5824 7.20822C13.5824 7.0168 13.7394 6.86157 13.9355 6.86157H13.939C14.1351 6.86157 14.2938 7.0168 14.2938 7.20822C14.2938 7.39964 14.1351 7.55487 13.9389 7.55487Z" fill="white"/>
<path d="M13.9388 3.39496C13.7427 3.39496 13.5823 3.23973 13.5823 3.04831C13.5823 2.85689 13.7392 2.70166 13.9354 2.70166H13.9389C14.135 2.70166 14.2937 2.85689 14.2937 3.04831C14.2937 3.23973 14.135 3.39496 13.9388 3.39496Z" fill="#F2F2F6"/>
<path d="M13.9388 6.16816C13.7427 6.16816 13.5823 6.01293 13.5823 5.82151C13.5823 5.63009 13.7392 5.47485 13.9354 5.47485H13.9389C14.135 5.47485 14.2937 5.63009 14.2937 5.82151C14.2937 6.01293 14.135 6.16816 13.9388 6.16816Z" fill="#F2F2F6"/>
<path d="M7.55186 2.00851C7.35571 2.00851 7.19531 1.85327 7.19531 1.66185C7.19531 1.47042 7.35228 1.31519 7.54843 1.31519H7.55191C7.74806 1.31519 7.90674 1.47042 7.90674 1.66185C7.90674 1.85327 7.74801 2.00851 7.55186 2.00851Z" fill="#F2F2F6"/>
<path d="M7.55174 4.78143C7.35559 4.78143 7.19519 4.6262 7.19519 4.43478C7.19519 4.24337 7.35215 4.08813 7.5483 4.08813H7.55178C7.74793 4.08813 7.90662 4.24337 7.90662 4.43478C7.90662 4.6262 7.74789 4.78143 7.55174 4.78143Z" fill="#F2F2F6"/>
<path d="M7.55174 7.55463C7.35559 7.55463 7.19519 7.39939 7.19519 7.20798C7.19519 7.01656 7.35215 6.86133 7.5483 6.86133H7.55178C7.74793 6.86133 7.90662 7.01656 7.90662 7.20798C7.90662 7.39939 7.74789 7.55463 7.55174 7.55463Z" fill="#F2F2F6"/>
<path d="M7.55174 3.39521C7.35559 3.39521 7.19519 3.23998 7.19519 3.04856C7.19519 2.85714 7.35215 2.7019 7.5483 2.7019H7.55178C7.74793 2.7019 7.90662 2.85714 7.90662 3.04856C7.90657 3.23998 7.74789 3.39521 7.55174 3.39521Z" fill="white"/>
<path d="M7.55174 6.16816C7.35559 6.16816 7.19519 6.01293 7.19519 5.82151C7.19519 5.63009 7.35215 5.47485 7.5483 5.47485H7.55178C7.74793 5.47485 7.90662 5.63009 7.90662 5.82151C7.90662 6.01293 7.74789 6.16816 7.55174 6.16816Z" fill="white"/>
<path d="M6.48717 2.70184C6.29102 2.70184 6.13062 2.54661 6.13062 2.35519C6.13062 2.16378 6.28758 2.00854 6.48373 2.00854H6.48721C6.68336 2.00854 6.84204 2.16378 6.84204 2.35519C6.842 2.54665 6.68332 2.70184 6.48717 2.70184Z" fill="white"/>
<path d="M6.48717 5.47503C6.29102 5.47503 6.13062 5.3198 6.13062 5.12838C6.13062 4.93697 6.28758 4.78174 6.48373 4.78174H6.48721C6.68336 4.78174 6.84204 4.93697 6.84204 5.12838C6.84204 5.3198 6.68332 5.47503 6.48717 5.47503Z" fill="white"/>
<path d="M6.48717 4.08833C6.29102 4.08833 6.13062 3.9331 6.13062 3.74168C6.13062 3.55026 6.28758 3.39502 6.48373 3.39502H6.48721C6.68336 3.39502 6.84204 3.55026 6.84204 3.74168C6.84204 3.9331 6.68332 4.08833 6.48717 4.08833Z" fill="#F2F2F6"/>
<path d="M6.48717 6.86152C6.29102 6.86152 6.13062 6.70628 6.13062 6.51487C6.13062 6.32345 6.28758 6.16821 6.48373 6.16821H6.48721C6.68336 6.16821 6.84204 6.32345 6.84204 6.51487C6.84204 6.70628 6.68332 6.86152 6.48717 6.86152Z" fill="#F2F2F6"/>
<path d="M9.68101 2.00851C9.48486 2.00851 9.32446 1.85327 9.32446 1.66185C9.32446 1.47042 9.48143 1.31519 9.67758 1.31519H9.68106C9.87721 1.31519 10.0359 1.47042 10.0359 1.66185C10.0359 1.85327 9.87712 2.00851 9.68101 2.00851Z" fill="white"/>
<path d="M9.68101 4.78168C9.48486 4.78168 9.32446 4.62645 9.32446 4.43503C9.32446 4.24361 9.48143 4.08838 9.67758 4.08838H9.68106C9.87721 4.08838 10.0359 4.24361 10.0359 4.43503C10.0359 4.62645 9.87712 4.78168 9.68101 4.78168Z" fill="white"/>
<path d="M9.68101 7.55487C9.48486 7.55487 9.32446 7.39964 9.32446 7.20822C9.32446 7.0168 9.48143 6.86157 9.67758 6.86157H9.68106C9.87721 6.86157 10.0359 7.0168 10.0359 7.20822C10.0359 7.39964 9.87712 7.55487 9.68101 7.55487Z" fill="white"/>
<path d="M9.68101 3.39521C9.48486 3.39521 9.32446 3.23998 9.32446 3.04856C9.32446 2.85714 9.48143 2.7019 9.67758 2.7019H9.68106C9.87721 2.7019 10.0359 2.85714 10.0359 3.04856C10.0358 3.23998 9.87712 3.39521 9.68101 3.39521Z" fill="#F2F2F6"/>
<path d="M9.68101 6.16816C9.48486 6.16816 9.32446 6.01293 9.32446 5.82151C9.32446 5.63009 9.48143 5.47485 9.67758 5.47485H9.68106C9.87721 5.47485 10.0359 5.63009 10.0359 5.82151C10.0359 6.01293 9.87712 6.16816 9.68101 6.16816Z" fill="#F2F2F6"/>
<path d="M8.61619 2.70184C8.42004 2.70184 8.25964 2.54661 8.25964 2.35519C8.25964 2.16378 8.41661 2.00854 8.61276 2.00854H8.61624C8.81239 2.00854 8.97107 2.16378 8.97107 2.35519C8.97107 2.54665 8.81234 2.70184 8.61619 2.70184Z" fill="#F2F2F6"/>
<path d="M8.61619 5.47503C8.42004 5.47503 8.25964 5.3198 8.25964 5.12838C8.25964 4.93697 8.41661 4.78174 8.61276 4.78174H8.61624C8.81239 4.78174 8.97107 4.93697 8.97107 5.12838C8.97107 5.3198 8.81234 5.47503 8.61619 5.47503Z" fill="#F2F2F6"/>
<path d="M8.61619 4.08833C8.42004 4.08833 8.25964 3.9331 8.25964 3.74168C8.25964 3.55026 8.41661 3.39502 8.61276 3.39502H8.61624C8.81239 3.39502 8.97107 3.55026 8.97107 3.74168C8.97107 3.9331 8.81234 4.08833 8.61619 4.08833Z" fill="white"/>
<path d="M8.61619 6.86152C8.42004 6.86152 8.25964 6.70628 8.25964 6.51487C8.25964 6.32345 8.41661 6.16821 8.61276 6.16821H8.61624C8.81239 6.16821 8.97107 6.32345 8.97107 6.51487C8.97107 6.70628 8.81234 6.86152 8.61619 6.86152Z" fill="white"/>
<path d="M11.8064 2.00851C11.6102 2.00851 11.4498 1.85327 11.4498 1.66185C11.4498 1.47042 11.6068 1.31519 11.8029 1.31519H11.8064C12.0026 1.31519 12.1613 1.47042 12.1613 1.66185C12.1613 1.85327 12.0025 2.00851 11.8064 2.00851Z" fill="#F2F2F6"/>
<path d="M11.8064 4.78168C11.6102 4.78168 11.4498 4.62645 11.4498 4.43503C11.4498 4.24361 11.6068 4.08838 11.8029 4.08838H11.8064C12.0026 4.08838 12.1613 4.24361 12.1613 4.43503C12.1613 4.62645 12.0025 4.78168 11.8064 4.78168Z" fill="#F2F2F6"/>
<path d="M11.8064 7.55487C11.6102 7.55487 11.4498 7.39964 11.4498 7.20822C11.4498 7.0168 11.6068 6.86157 11.8029 6.86157H11.8064C12.0026 6.86157 12.1613 7.0168 12.1613 7.20822C12.1613 7.39964 12.0025 7.55487 11.8064 7.55487Z" fill="#F2F2F6"/>
<path d="M11.8064 3.39521C11.6102 3.39521 11.4498 3.23998 11.4498 3.04856C11.4498 2.85714 11.6068 2.7019 11.8029 2.7019H11.8064C12.0026 2.7019 12.1613 2.85714 12.1613 3.04856C12.1612 3.23998 12.0025 3.39521 11.8064 3.39521Z" fill="white"/>
<path d="M11.8064 6.16816C11.6102 6.16816 11.4498 6.01293 11.4498 5.82151C11.4498 5.63009 11.6068 5.47485 11.8029 5.47485H11.8064C12.0026 5.47485 12.1613 5.63009 12.1613 5.82151C12.1613 6.01293 12.0025 6.16816 11.8064 6.16816Z" fill="white"/>
<path d="M10.7418 2.70184C10.5457 2.70184 10.3853 2.54661 10.3853 2.35519C10.3853 2.16378 10.5422 2.00854 10.7384 2.00854H10.7418C10.938 2.00854 11.0967 2.16378 11.0967 2.35519C11.0966 2.54665 10.938 2.70184 10.7418 2.70184Z" fill="white"/>
<path d="M10.7418 5.47503C10.5457 5.47503 10.3853 5.3198 10.3853 5.12838C10.3853 4.93697 10.5422 4.78174 10.7384 4.78174H10.7418C10.938 4.78174 11.0967 4.93697 11.0967 5.12838C11.0967 5.3198 10.938 5.47503 10.7418 5.47503Z" fill="white"/>
<path d="M10.7418 4.08833C10.5457 4.08833 10.3853 3.9331 10.3853 3.74168C10.3853 3.55026 10.5422 3.39502 10.7384 3.39502H10.7418C10.938 3.39502 11.0967 3.55026 11.0967 3.74168C11.0967 3.9331 10.938 4.08833 10.7418 4.08833Z" fill="#F2F2F6"/>
<path d="M10.7418 6.86152C10.5457 6.86152 10.3853 6.70628 10.3853 6.51487C10.3853 6.32345 10.5422 6.16821 10.7384 6.16821H10.7418C10.938 6.16821 11.0967 6.32345 11.0967 6.51487C11.0967 6.70628 10.938 6.86152 10.7418 6.86152Z" fill="#F2F2F6"/>
<path d="M12.8744 2.70184C12.6782 2.70184 12.5178 2.54661 12.5178 2.35519C12.5178 2.16378 12.6748 2.00854 12.8709 2.00854H12.8744C13.0706 2.00854 13.2292 2.16378 13.2292 2.35519C13.2292 2.54665 13.0705 2.70184 12.8744 2.70184Z" fill="#F2F2F6"/>
<path d="M12.8744 5.47503C12.6782 5.47503 12.5178 5.3198 12.5178 5.12838C12.5178 4.93697 12.6748 4.78174 12.8709 4.78174H12.8744C13.0706 4.78174 13.2292 4.93697 13.2292 5.12838C13.2292 5.3198 13.0705 5.47503 12.8744 5.47503Z" fill="#F2F2F6"/>
<path d="M12.8744 4.08833C12.6782 4.08833 12.5178 3.9331 12.5178 3.74168C12.5178 3.55026 12.6748 3.39502 12.8709 3.39502H12.8744C13.0706 3.39502 13.2292 3.55026 13.2292 3.74168C13.2292 3.9331 13.0705 4.08833 12.8744 4.08833Z" fill="white"/>
<path d="M12.8744 6.86152C12.6782 6.86152 12.5178 6.70628 12.5178 6.51487C12.5178 6.32345 12.6748 6.16821 12.8709 6.16821H12.8744C13.0706 6.16821 13.2292 6.32345 13.2292 6.51487C13.2292 6.70628 13.0705 6.86152 12.8744 6.86152Z" fill="white"/>
<path d="M4.12891 11.7755L4.87054 12.3481H25.9999V10.3672H4.70967L4.12891 11.7755Z" fill="#F2F2F6"/>
<path d="M4 10.3672V12.3481H4.87048C4.76732 12.1038 4.70966 11.8364 4.70966 11.5557V10.3672H4V10.3672Z" fill="#E1E1E6"/>
</g>
<defs>
<filter id="filter0_d" x="0" y="0.462891" width="30.0001" height="21.8661" filterUnits="userSpaceOnUse" color-interpolation-filters="sRGB">
<feFlood flood-opacity="0" result="BackgroundImageFix"/>
<feColorMatrix in="SourceAlpha" type="matrix" values="0 0 0 0 0 0 0 0 0 0 0 0 0 0 0 0 0 0 127 0"/>
<feOffset dy="4"/>
<feGaussianBlur stdDeviation="2"/>
<feColorMatrix type="matrix" values="0 0 0 0 0 0 0 0 0 0 0 0 0 0 0 0 0 0 0.25 0"/>
<feBlend mode="normal" in2="BackgroundImageFix" result="effect1_dropShadow"/>
<feBlend mode="normal" in="SourceGraphic" in2="effect1_dropShadow" result="shape"/>
</filter>
</defs>
</svg>
